DBRep_DrawableShape

CASCADE Topology V1, (c) Matra-Datavision
Locations 0
Curve2ds 4
1 0 0 1 0 
1 0 1 1 0 
1 3.1415926535897931 0 0 1 
1 6.2831853071795862 -0 0 1 
Curves 18
1 0 0 0 0 0 1 
1 0 0 1 -0 1 0 
1 0 1 0 0 0 1 
1 0 0 0 -0 1 0 
1 1 0 0 0 0 1 
2 1 0 0.5 -0 1 0 0 -0 1 1 0 0 0.01
1 1 0 0 0 0 1 
1 0 0 1 1 0 -0 
1 0 0 0 1 0 -0 
1 0 1 1 1 0 -0 
1 1 0 1 0 1 0 
1 1 1 0 0 0 1 
2 1 1 0.5 -0 1 0 0 -0 1 1 0 0 0.01
1 1 1 0 0 0 1 
1 0 1 0 1 0 -0 
1 1 0 0 -0 1 0 
7 0 0  1 2 2  1 0 0.48999999999999999  1 1 0.48999999999999999 
 0 2 1 2
1 1 0 0.51000000000000001 0 1 0 
Polygon3D 0
PolygonOnTriangulations 0
Surfaces 8
1 0 0 0 1 0 -0 0 0 1 0 -1 0 
1 0 0 0 -0 1 0 0 0 1 1 0 -0 
10 3.1415926535897931 6.2831853071795862 0 1
2 1 0 0.5 0 1 0 0 -0 1 1 0 0 0.01
1 0 0 1 0 0 1 1 0 -0 -0 1 0 
1 0 1 0 -0 1 0 0 0 1 1 0 -0 
1 0 0 0 0 0 1 1 0 -0 -0 1 0 
1 1 0 0 1 0 -0 0 0 1 0 -1 0 
1 1 0 0 1 0 -0 0 0 1 0 -1 0 
Triangulations 0

TShapes 49
Ve
1e-07
0 0 1
0 0

0101101
*
Ve
1e-07
0 0 0
0 0

0101101
*
Ed
 1e-07 1 1 0
1  1 0 0 1
0

0101000
-49 0 +48 0 *
Ve
1e-07
0 1 1
0 0

0101101
*
Ed
 1e-07 1 1 0
1  2 0 0 1
0

0101000
-46 0 +49 0 *
Ve
1e-07
0 1 0
0 0

0101101
*
Ed
 1e-07 1 1 0
1  3 0 0 1
0

0101000
-46 0 +44 0 *
Ed
 1e-07 1 1 0
1  4 0 0 1
0

0101000
-44 0 +48 0 *
Wi

0101000
-47 0 -45 0 +43 0 +42 0 *
Fa
0  1e-07 1 0

0111000
+41 0 *
Ve
1e-07
1 0 0
0 0

0101101
*
Ve
1e-05
1 0 0.49
0 0

0101101
*
Ed
 1e-07 1 1 0
1  5 0 0 0.49
0

0101000
+39 0 -38 0 *
Ve
1e-07
1 0 0.51
0 0

0101101
*
Ed
 1e-07 1 1 0
1  6 0 3.14159265358979 6.28318530717959
2  1 3 0 3.14159265358979 6.28318530717959
0

0101000
+38 0 -36 0 *
Ve
1e-07
1 0 1
0 0

0101101
*
Ed
 1e-07 1 1 0
1  7 0 0.51 1
0

0101000
+36 0 -34 0 *
Ed
 1e-07 1 1 0
1  8 0 0 1
0

0101000
-34 0 +49 0 *
Ed
 1e-07 1 1 0
1  9 0 0 1
0

0101000
-39 0 +48 0 *
Wi

0101000
-37 0 -35 0 -33 0 +32 0 +47 0 -31 0 *
Fa
0  1e-07 2 0

0111000
+30 0 *
Ve
1e-07
1 1 1
0 0

0101101
*
Ed
 1e-07 1 1 0
1  10 0 0 1
0

0101000
-28 0 +46 0 *
Ed
 1e-07 1 1 0
1  11 0 0 1
0

0101000
-28 0 +34 0 *
Wi

0101000
-45 0 -27 0 +26 0 +32 0 *
Fa
0  1e-07 4 0

0111000
+25 0 *
Ve
1e-07
1 1 0
0 0

0101101
*
Ve
1e-05
1 1 0.49
0 0

0101101
*
Ed
 1e-07 1 1 0
1  12 0 0 0.49
0

0101000
+23 0 -22 0 *
Ve
1e-07
1 1 0.51
0 0

0101101
*
Ed
 1e-07 1 1 0
1  13 0 3.14159265358979 6.28318530717959
2  2 3 0 3.14159265358979 6.28318530717959
0

0101000
-20 0 +22 0 *
Ed
 1e-07 1 1 0
1  14 0 0.51 1
0

0101000
+20 0 -28 0 *
Ed
 1e-07 1 1 0
1  15 0 0 1
0

0101000
-23 0 +44 0 *
Wi

0101000
-21 0 -19 0 -18 0 +27 0 +43 0 -17 0 *
Fa
0  1e-07 5 0

0111000
+16 0 *
Ed
 1e-07 1 1 0
1  16 0 0 1
0

0101000
-23 0 +39 0 *
Wi

0101000
-42 0 -17 0 +14 0 +31 0 *
Fa
0  1e-07 6 0

0111000
+13 0 *
Ed
 1e-05 1 1 0
1  17 0 0 1
2  3 3 0 0 1
0

0101000
+38 0 -22 0 *
Wi

0101000
-37 0 -11 0 +21 0 +14 0 *
Fa
0  1e-07 7 0

0111000
+10 0 *
Ed
 1e-07 1 1 0
1  18 0 0 1
2  4 3 0 0 1
0

0101000
-20 0 +36 0 *
Wi

0101000
+35 0 -11 0 +8 0 -19 0 *
Fa
0  1e-07 3 0

0111000
+7 0 *
Wi

0101000
-33 0 -26 0 +18 0 +8 0 *
Fa
0  1e-07 8 0

0111000
+5 0 *
Sh

0101100
-40 0 -29 0 +24 0 +15 0 -12 0 +9 0 -6 0 +4 0 *
So

0100000
+3 0 *
Co

1100000
+2 0 *

+1 0 
##EGADS HEADER FILE-REV 1 ##
0
  1  1  8  8  18  12  3
1 5 1
_body
3
1 5 1
_brch
3
2 8 3
_tParams
 4.330127884948e-02  1.732051153979e-03  1.500000000000e+01 
    2 0 4
1 5 2
_body
1 1 
1 5 2
_brch
1 1 
1 5 2
_hist
1 3 
1 7 3
_faceID
1 1 1 
    2 1 4
1 5 2
_body
1 3 
1 5 2
_brch
1 3 
1 5 2
_hist
1 3 
1 7 3
_faceID
1 3 1 
    2 2 4
1 5 2
_body
1 6 
1 5 2
_brch
1 6 
1 5 2
_hist
1 3 
1 7 3
_faceID
1 6 1 
    2 3 4
1 5 2
_body
1 4 
1 5 2
_brch
1 4 
1 5 2
_hist
1 3 
1 7 3
_faceID
1 4 1 
    2 4 4
1 5 2
_body
1 5 
1 5 2
_brch
1 5 
1 5 2
_hist
1 3 
1 7 3
_faceID
1 5 1 
    2 5 4
1 5 2
_body
1 2 
1 5 2
_brch
1 2 
1 5 2
_hist
1 3 
1 7 3
_faceID
1 2 1 
    2 6 4
1 5 2
_body
2 4 
1 5 2
_brch
2 4 
1 5 2
_hist
2 3 
1 7 3
_faceID
2 4 1 
    2 7 4
1 5 2
_body
1 2 
1 5 2
_brch
1 2 
1 5 2
_hist
1 3 
1 7 3
_faceID
1 2 2 
    4 0 3
1 5 2
_body
1 103 
1 6 1
_nface
2
1 7 5
_edgeID
1 1 1 3 1 
    4 1 3
1 5 2
_body
1 106 
1 6 1
_nface
2
1 7 5
_edgeID
1 1 1 6 1 
    4 2 3
1 5 2
_body
1 104 
1 6 1
_nface
2
1 7 5
_edgeID
1 1 1 4 1 
    4 3 3
1 5 2
_body
1 105 
1 6 1
_nface
2
1 7 5
_edgeID
1 1 1 5 1 
    4 4 3
1 5 2
_body
1 203 
1 7 5
_edgeID
1 2 1 3 1 
1 6 1
_nface
2
    4 5 3
1 5 2
_body
3 0 
1 6 1
_nface
2
1 7 5
_edgeID
1 3 2 4 1 
    4 6 3
1 5 2
_body
1 203 
1 7 5
_edgeID
1 2 1 3 2 
1 6 1
_nface
2
    4 7 3
1 5 2
_body
1 306 
1 6 1
_nface
2
1 7 5
_edgeID
1 3 1 6 1 
    4 8 3
1 5 2
_body
1 305 
1 6 1
_nface
2
1 7 5
_edgeID
1 3 1 5 1 
    4 9 3
1 5 2
_body
1 406 
1 6 1
_nface
2
1 7 5
_edgeID
1 4 1 6 1 
    4 10 3
1 5 2
_body
1 206 
1 6 1
_nface
2
1 7 5
_edgeID
1 2 1 6 1 
    4 11 3
1 5 2
_body
1 204 
1 7 5
_edgeID
1 2 1 4 1 
1 6 1
_nface
2
    4 12 3
1 5 2
_body
3 0 
1 6 1
_nface
2
1 7 5
_edgeID
1 4 2 4 1 
    4 13 3
1 5 2
_body
1 204 
1 7 5
_edgeID
1 2 1 4 2 
1 6 1
_nface
2
    4 14 3
1 5 2
_body
1 405 
1 6 1
_nface
2
1 7 5
_edgeID
1 4 1 5 1 
    4 15 3
1 5 2
_body
1 205 
1 6 1
_nface
2
1 7 5
_edgeID
1 2 1 5 1 
    4 16 3
1 5 2
_body
3 0 
1 6 1
_nface
2
1 7 5
_edgeID
1 2 2 4 1 
    4 17 3
1 5 2
_body
3 0 
1 6 1
_nface
2
1 7 5
_edgeID
1 2 2 4 2 
    5 0 2
1 7 1
_nodeID
1
1 6 1
_nedge
3
    5 1 2
1 7 1
_nodeID
2
1 6 1
_nedge
3
    5 2 2
1 7 1
_nodeID
3
1 6 1
_nedge
3
    5 3 2
1 7 1
_nodeID
4
1 6 1
_nedge
3
    5 4 2
1 7 1
_nodeID
5
1 6 1
_nedge
3
    5 5 2
1 7 1
_nodeID
6
1 6 1
_nedge
3
    5 6 2
1 7 1
_nodeID
7
1 6 1
_nedge
3
    5 7 2
1 7 1
_nodeID
8
1 6 1
_nedge
3
    5 8 2
1 7 1
_nodeID
9
1 6 1
_nedge
3
    5 9 2
1 7 1
_nodeID
10
1 6 1
_nedge
3
    5 10 2
1 7 1
_nodeID
11
1 6 1
_nedge
3
    5 11 2
1 7 1
_nodeID
12
1 6 1
_nedge
3
    0 0 0
