DBRep_DrawableShape

CASCADE Topology V1, (c) Matra-Datavision
Locations 0
Curve2ds 16
1 0 1 1 0 
1 0 -0 0 1 
1 6.2831853071795862 -0 0 1 
1 0 0 1 0 
1 0 1 1 0 
1 3.1415926535897931 0 0 1 
1 3.1415926535897931 0 0 1 
1 0 1 1 0 
1 0 0 1 0 
7 0 0  1 2 2  3.1415926535897931 1  6.2831853071795862 1 
 3.1415926535897931 2 6.2831853071795862 2
1 0 -0 0 1 
1 6.2831853071795862 -0 0 1 
1 0 0 1 0 
1 3.1415926535897931 0 0 1 
1 3.1415926535897931 0 0 1 
1 0 0 1 0 
Curves 10
2 0 0 1 0 0 1 1 0 0 0 1 0 0.5
1 0.5 -1.2246467991473532e-16 0 0 0 1 
2 0 0 0 0 0 1 1 0 0 0 1 0 0.5
7 0 0  1 2 2  -0.5 6.123233995736766e-17 0  -0.5 6.123233995736766e-17 1 
 0 2 1 2
2 0 0 1 0 0 1 1 0 0 0 1 0 0.5
2 0 0 0 0 0 1 1 0 0 0 1 0 0.5
1 0.5 0.049999999999999878 -1 0 0 1 
2 0 0.050000000000000003 -1 0 0 1 1 0 0 0 1 0 0.5
7 0 0  1 2 2  -0.5 0.050000000000000065 -1  -0.5 0.050000000000000065 0 
 0 2 1 2
2 0 0.050000000000000003 -1 0 0 1 1 0 0 0 1 0 0.5
Polygon3D 0
PolygonOnTriangulations 0
Surfaces 6
10 0 3.1415926535897931 0 1
2 0 0 0 0 0 1 1 0 0 0 1 0 0.5
10 3.1415926535897931 6.2831853071795862 0 1
2 0 0 0 0 0 1 1 0 0 0 1 0 0.5
10 0 3.1415926535897931 0 1
2 0 0.050000000000000003 -1 0 0 1 1 0 0 0 1 0 0.5
1 0 0 1 0 0 1 1 0 0 0 1 0 
10 3.1415926535897931 6.2831853071795862 0 1
2 0 0.050000000000000003 -1 0 0 1 1 0 0 0 1 0 0.5
1 0 0.050000000000000003 -1 0 0 1 1 0 0 0 1 0 
Triangulations 0

TShapes 31
Ve
1e-07
-0.5 6.12323399573677e-17 1
0 0

0101101
*
Ve
1e-07
0.5 -1.22464679914735e-16 1
0 0

0101101
*
Ed
 1e-07 1 1 0
1  1 0 0 3.14159265358979
2  1 1 0 0 3.14159265358979
0

0101000
-31 0 +30 0 *
Ve
0.0750000000000001
0.5 0.0249999999999999 0
0 0

0101101
*
Ed
 1e-07 1 1 0
1  2 0 0 1
2  2 1 0 0 1
2  3 2 0 0 1
0

0101000
+28 0 -30 0 *
Ve
0.0750000000000001
-0.5 0.0250000000000001 0
0 0

0101101
*
Ed
 0.0750000000000001 1 1 0
1  3 0 0 3.14159265358979
2  4 1 0 0 3.14159265358979
2  5 3 0 0 3.14159265358979
0

0101000
+28 0 -26 0 *
Ed
 1e-05 1 1 0
1  4 0 0 1
2  6 1 0 0 1
2  7 2 0 0 1
0

0101000
+26 0 -31 0 *
Wi

0101100
-29 0 -27 0 +25 0 +24 0 *
Fa
0  1e-07 1 0

0111000
+23 0 *
Ed
 1e-07 1 1 0
1  5 0 3.14159265358979 6.28318530717959
2  8 2 0 3.14159265358979 6.28318530717959
0

0101000
-30 0 +31 0 *
Wi

0101100
+29 0 +21 0 *
Fa
0  1e-07 4 0

0111000
+20 0 *
Ed
 0.075 1 1 0
1  6 0 3.14159265358979 6.28318530717959
2  9 2 0 3.14159265358979 6.28318530717959
2  10 5 0 3.14159265358979 6.28318530717959
0

0101000
+26 0 -28 0 *
Wi

0101100
+18 0 +27 0 -21 0 -24 0 *
Fa
0  1e-07 2 0

0111000
+17 0 *
Ve
1e-07
0.5 0.0499999999999999 -1
0 0

0101101
*
Ed
 1e-07 1 1 0
1  7 0 0 1
2  11 3 0 0 1
2  12 5 0 0 1
0

0101000
+15 0 -28 0 *
Ve
1e-07
-0.5 0.0500000000000001 -1
0 0

0101101
*
Ed
 1e-07 1 1 0
1  8 0 0 3.14159265358979
2  13 3 0 0 3.14159265358979
0

0101000
+15 0 -13 0 *
Ed
 1e-05 1 1 0
1  9 0 0 1
2  14 3 0 0 1
2  15 5 0 0 1
0

0101000
+13 0 -26 0 *
Wi

0101100
-25 0 -14 0 +12 0 +11 0 *
Fa
0  1e-07 3 0

0111000
+10 0 *
Ed
 1e-07 1 1 0
1  10 0 3.14159265358979 6.28318530717959
2  16 5 0 3.14159265358979 6.28318530717959
0

0101000
+13 0 -15 0 *
Wi

0101100
+8 0 +14 0 -18 0 -11 0 *
Fa
0  1e-07 5 0

0111000
+7 0 *
Wi

0101100
-12 0 -8 0 *
Fa
0  1e-07 6 0

0111000
-5 0 *
Sh

0101100
+22 0 +19 0 +16 0 +9 0 +6 0 -4 0 *
So

0100000
+3 0 *
Co

1100000
+2 0 *

+1 0 
##EGADS HEADER FILE-REV 1 ##
0
  1  1  6  6  10  6  3
1 5 1
_body
3
1 5 1
_brch
10
2 8 3
_tParams
 6.175810483248e-02  1.852743144975e-02  2.000000000000e+01 
    2 0 6
1 5 2
_body
1 3 
1 5 2
_brch
4 3 
1 5 2
_hist
1 3 
1 9 4
__trace__
1 1 3 1 
2 5 1
group
 1.000000000000e+00
1 7 3
_faceID
1 3 1 
    2 1 5
1 5 2
_body
1 2 
1 5 2
_brch
4 2 
1 5 2
_hist
1 3 
1 9 4
__trace__
1 3 3 2 
1 7 3
_faceID
1 2 1 
    2 2 6
1 5 2
_body
1 4 
1 5 2
_brch
4 4 
1 5 2
_hist
1 3 
1 9 4
__trace__
1 2 3 3 
2 5 1
group
 2.000000000000e+00
1 7 3
_faceID
1 4 1 
    2 3 6
1 5 2
_body
2 3 
1 5 2
_brch
7 3 
1 5 2
_hist
2 3 
1 9 4
__trace__
2 1 3 4 
2 5 1
group
 1.000000000000e+00
1 7 3
_faceID
2 3 1 
    2 4 6
1 5 2
_body
2 4 
1 5 2
_brch
7 4 
1 5 2
_hist
2 3 
1 9 4
__trace__
2 2 3 5 
2 5 1
group
 2.000000000000e+00
1 7 3
_faceID
2 4 1 
    2 5 5
1 5 2
_body
2 1 
1 5 2
_brch
7 1 
1 5 2
_hist
2 3 
1 9 4
__trace__
2 4 3 6 
1 7 3
_faceID
2 1 1 
    4 0 4
1 9 4
__trace__
1 1 3 1 
1 5 2
_body
1 20003 
1 7 5
_edgeID
1 2 1 3 1 
1 6 1
_nface
2
    4 1 4
1 5 2
_body
1 40003 
1 7 5
_edgeID
1 3 1 4 2 
1 9 4
__trace__
1 2 3 2 
1 6 1
_nface
2
    4 2 4
1 5 2
_body
3 0 
1 7 5
_edgeID
1 3 2 3 1 
1 6 1
_nface
2
1 9 2
__trace__
3 3 
    4 3 4
1 5 2
_body
1 30004 
1 7 5
_edgeID
1 3 1 4 1 
1 9 4
__trace__
1 4 3 4 
1 6 1
_nface
2
    4 4 4
1 9 4
__trace__
1 6 3 5 
1 5 2
_body
1 20004 
1 7 5
_edgeID
1 2 1 4 1 
1 6 1
_nface
2
    4 5 4
1 5 2
_body
3 0 
1 7 5
_edgeID
1 4 2 4 1 
1 6 1
_nface
2
1 9 2
__trace__
3 6 
    4 6 4
1 5 2
_body
2 40003 
1 7 5
_edgeID
2 3 2 4 2 
1 9 4
__trace__
2 2 3 7 
1 6 1
_nface
2
    4 7 4
1 9 4
__trace__
2 3 3 8 
1 5 2
_body
2 30001 
1 7 5
_edgeID
2 1 2 3 1 
1 6 1
_nface
2
    4 8 4
1 5 2
_body
2 30004 
1 7 5
_edgeID
2 3 2 4 1 
1 9 4
__trace__
2 4 3 9 
1 6 1
_nface
2
    4 9 4
1 9 4
__trace__
2 5 3 10 
1 5 2
_body
2 40001 
1 7 5
_edgeID
2 1 2 4 1 
1 6 1
_nface
2
    5 0 3
1 9 4
__trace__
1 1 3 1 
1 7 1
_nodeID
1
1 6 1
_nedge
3
    5 1 3
1 9 4
__trace__
1 2 3 2 
1 7 1
_nodeID
2
1 6 1
_nedge
3
    5 2 3
1 7 1
_nodeID
3
1 6 1
_nedge
4
1 9 2
__trace__
3 3 
    5 3 3
1 7 1
_nodeID
4
1 6 1
_nedge
4
1 9 2
__trace__
3 4 
    5 4 3
1 9 4
__trace__
2 3 3 5 
1 7 1
_nodeID
5
1 6 1
_nedge
3
    5 5 3
1 9 4
__trace__
2 4 3 6 
1 7 1
_nodeID
6
1 6 1
_nedge
3
    0 0 0
