DBRep_DrawableShape

CASCADE Topology V1, (c) Matra-Datavision
Locations 0
Curve2ds 16
1 0 0.5 1 0 
1 0 -0 0 1 
1 6.2831853071795862 -0 0 1 
1 0 0 1 0 
7 0 0  7 8 2  -2.2204460492503131e-16 0.5  0.44879895051283336 0.50000000000000111  0.57880466804228947 0.49999999999999389  1.8822387879391989 0.50000000000001144  1.259353865650598 0.49999999999998906  2.5627879855474993 0.50000000000000622  2.6927937030769589 0.49999999999999822  3.1415926535897931 0.5 
 0 8 3.1415926535897931 8
1 3.1415926535897931 0 0 1 
1 3.1415926535897931 0 0 1 
1 0 0.5 1 0 
1 0 0 1 0 
1 0 0.5 1 0 
1 0 -0 0 1 
1 6.2831853071795862 -0 0 1 
1 0 0 1 0 
1 3.1415926535897931 0 0 1 
1 3.1415926535897931 0 0 1 
1 0 0 1 0 
Curves 10
2 0 0 0.5 0 0 1 1 0 0 0 1 0 0.25
1 0.25 -6.123233995736766e-17 0 0 0 1 
2 0 0 0 0 0 1 1 0 0 0 1 0 0.25
7 0 0  1 2 2  -0.25 3.061616997868383e-17 0  -0.25 3.061616997868383e-17 0.5 
 0 2 0.5 2
2 0 0 0.5 0 0 1 1 0 0 0 1 0 0.25
2 0 0 0 0 0 1 1 0 0 0 1 0 0.25
1 0.25 0.0099999999999999395 -0.5 0 0 1 
2 0 0.01 -0.5 0 0 1 1 0 0 0 1 0 0.25
7 0 0  1 2 2  -0.25 0.010000000000000031 -0.5  -0.25 0.010000000000000031 0 
 0 2 0.5 2
2 0 0.01 -0.5 0 0 1 1 0 0 0 1 0 0.25
Polygon3D 0
PolygonOnTriangulations 0
Surfaces 6
10 0 3.1415926535897931 0 0.5
2 0 0 0 0 0 1 1 0 0 0 1 0 0.25
10 3.1415926535897931 6.2831853071795862 0 0.5
2 0 0 0 0 0 1 1 0 0 0 1 0 0.25
10 0 3.1415926535897931 0 0.5
2 0 0.01 -0.5 0 0 1 1 0 0 0 1 0 0.25
1 0 0 0.5 0 0 1 1 0 0 0 1 0 
10 3.1415926535897931 6.2831853071795862 0 0.5
2 0 0.01 -0.5 0 0 1 1 0 0 0 1 0 0.25
1 0 0.01 -0.5 0 0 1 1 0 0 0 1 0 
Triangulations 0

TShapes 31
Ve
0.1
-0.25 3.06161699786838e-17 0.5
0 0

0101101
*
Ve
0.1
0.25 -6.12323399573677e-17 0.5
0 0

0101101
*
Ed
 0.1 1 1 0
1  1 0 0 3.14159265358979
2  1 1 0 0 3.14159265358979
0

0101000
-31 0 +30 0 *
Ve
0.11
0.25 0.00499999999999994 0
0 0

0101101
*
Ed
 0.1 1 1 0
1  2 0 0 0.5
2  2 1 0 0 0.5
2  3 2 0 0 0.5
0

0101000
+28 0 -30 0 *
Ve
0.150083335184159
-0.25 0.00500000000000003 0
0 0

0101101
*
Ed
 0.11 1 1 0
1  3 0 0 3.14159265358979
2  4 1 0 0 3.14159265358979
2  5 3 0 0 3.14159265358979
0

0101000
+28 0 -26 0 *
Ed
 0.1 1 1 0
1  4 0 0 0.5
2  6 1 0 0 0.5
2  7 2 0 0 0.5
0

0101000
+26 0 -31 0 *
Wi

0101100
-29 0 -27 0 +25 0 +24 0 *
Fa
0  0.1 1 0

0111000
+23 0 *
Ed
 0.1 1 1 0
1  5 0 3.14159265358979 6.28318530717959
2  8 2 0 3.14159265358979 6.28318530717959
0

0101000
-30 0 +31 0 *
Wi

0101100
+29 0 +21 0 *
Fa
0  0.1 4 0

0111000
+20 0 *
Ed
 0.11 1 1 0
1  6 0 3.14159265358979 6.28318530717959
2  9 2 0 3.14159265358979 6.28318530717959
2  10 5 0 3.14159265358979 6.28318530717959
0

0101000
+26 0 -28 0 *
Wi

0101100
+18 0 +27 0 -21 0 -24 0 *
Fa
0  0.1 2 0

0111000
+17 0 *
Ve
0.1
0.25 0.00999999999999994 -0.5
0 0

0101101
*
Ed
 0.1 1 1 0
1  7 0 0 0.5
2  11 3 0 0 0.5
2  12 5 0 0 0.5
0

0101000
+15 0 -28 0 *
Ve
0.1
-0.25 0.01 -0.5
0 0

0101101
*
Ed
 0.1 1 1 0
1  8 0 0 3.14159265358979
2  13 3 0 0 3.14159265358979
0

0101000
+15 0 -13 0 *
Ed
 0.1 1 1 0
1  9 0 0 0.5
2  14 3 0 0 0.5
2  15 5 0 0 0.5
0

0101000
+13 0 -26 0 *
Wi

0101100
-25 0 -14 0 +12 0 +11 0 *
Fa
0  0.1 3 0

0111000
+10 0 *
Ed
 0.1 1 1 0
1  10 0 3.14159265358979 6.28318530717959
2  16 5 0 3.14159265358979 6.28318530717959
0

0101000
+13 0 -15 0 *
Wi

0101100
+8 0 +14 0 -18 0 -11 0 *
Fa
0  0.1 5 0

0111000
+7 0 *
Wi

0101100
-12 0 -8 0 *
Fa
0  0.1 6 0

0111000
-5 0 *
Sh

0101100
+22 0 +19 0 +16 0 +9 0 +6 0 -4 0 *
So

0100000
+3 0 *
Co

1100000
+2 0 *

+1 0 
##EGADS HEADER FILE-REV 1 ##
0
  1  1  6  6  10  6  3
1 5 1
_body
3
1 5 1
_brch
6
2 8 3
_tParams
 3.072153971565e-02  9.216461914694e-03  2.000000000000e+01 
    2 0 4
1 5 2
_body
1 3 
1 5 2
_brch
4 3 
1 5 2
_hist
1 3 
1 7 3
_faceID
1 3 1 
    2 1 4
1 5 2
_body
1 2 
1 5 2
_brch
4 2 
1 5 2
_hist
1 3 
1 7 3
_faceID
1 2 1 
    2 2 4
1 5 2
_body
1 4 
1 5 2
_brch
4 4 
1 5 2
_hist
1 3 
1 7 3
_faceID
1 4 1 
    2 3 4
1 5 2
_body
2 3 
1 5 2
_brch
5 3 
1 5 2
_hist
2 3 
1 7 3
_faceID
2 3 1 
    2 4 4
1 5 2
_body
2 4 
1 5 2
_brch
5 4 
1 5 2
_hist
2 3 
1 7 3
_faceID
2 4 1 
    2 5 4
1 5 2
_body
2 1 
1 5 2
_brch
5 1 
1 5 2
_hist
2 3 
1 7 3
_faceID
2 1 1 
    4 0 3
1 5 2
_body
1 203 
1 7 5
_edgeID
1 2 1 3 1 
1 6 1
_nface
2
    4 1 3
1 5 2
_body
1 403 
1 7 5
_edgeID
1 3 1 4 2 
1 6 1
_nface
2
    4 2 3
1 5 2
_body
3 0 
1 7 5
_edgeID
1 3 2 3 1 
1 6 1
_nface
2
    4 3 3
1 5 2
_body
1 304 
1 7 5
_edgeID
1 3 1 4 1 
1 6 1
_nface
2
    4 4 3
1 5 2
_body
1 204 
1 7 5
_edgeID
1 2 1 4 1 
1 6 1
_nface
2
    4 5 3
1 5 2
_body
3 0 
1 7 5
_edgeID
1 4 2 4 1 
1 6 1
_nface
2
    4 6 3
1 5 2
_body
2 403 
1 7 5
_edgeID
2 3 2 4 2 
1 6 1
_nface
2
    4 7 3
1 5 2
_body
2 301 
1 7 5
_edgeID
2 1 2 3 1 
1 6 1
_nface
2
    4 8 3
1 5 2
_body
2 304 
1 7 5
_edgeID
2 3 2 4 1 
1 6 1
_nface
2
    4 9 3
1 5 2
_body
2 401 
1 7 5
_edgeID
2 1 2 4 1 
1 6 1
_nface
2
    5 0 2
1 7 1
_nodeID
1
1 6 1
_nedge
3
    5 1 2
1 7 1
_nodeID
2
1 6 1
_nedge
3
    5 2 2
1 7 1
_nodeID
3
1 6 1
_nedge
4
    5 3 2
1 7 1
_nodeID
4
1 6 1
_nedge
4
    5 4 2
1 7 1
_nodeID
5
1 6 1
_nedge
3
    5 5 2
1 7 1
_nodeID
6
1 6 1
_nedge
3
    0 0 0
