DBRep_DrawableShape

CASCADE Topology V1, (c) Matra-Datavision
Locations 0
Curve2ds 4
1 3.1415926535897931 0 0 1 
1 0 -1.5707963267948966 1 0 
1 0 -6.2831853071795862 0 1 
1 0 1.5707963267948966 1 0 
Curves 2
7 0 0  8 9 2  -1.1102230246251565e-16 2.4651903288156619e-32 -1  -0.39269908169872153 4.8090179058847402e-17 -0.99999999999999967  -0.78540282094169278 9.6180928483519443e-17 -0.82371721549249899  -1.085784257205388 1.3296583002540695e-16 -0.47146844414511035  -1.201805729000238 1.4717389317937724e-16 -9.8809849191638837e-15  -1.0857842572053866 1.3296583002540766e-16 0.47146844414512662  -0.78540282094169511 9.6180928483518802e-17 0.82371721549249011  -0.3926990816987207 4.8090179058847612e-17 1.0000000000000024  -1.1102230246251565e-16 2.4651903288156619e-32 1 
 -1.5707963267948966 9 1.5707963267948966 9
2 0 0 0 -2.4492127076447545e-16 -1 0 1 -2.4492127076447545e-16 0 0 0 1 1
Polygon3D 0
PolygonOnTriangulations 0
Surfaces 2
10 0 3.1415926535897931 -1.5707963267948966 1.5707963267948966
4 0 0 0 0 0 1 1 0 -0 -0 1 0 1
1 -2 0 -2 -0 1 0 0 0 1 1 0 -0 
Triangulations 0

TShapes 13
Ve
1e-05
6.12303176911189e-17 -1.49966072182214e-32 1
0 0

0101101
*
Ve
1e-05
6.12303176911189e-17 -1.49966072182214e-32 -1
0 0

0101101
*
Ed
 1e-05 1 1 0
1  1 0 -1.5707963267949 1.5707963267949
2  1 1 0 -1.5707963267949 1.5707963267949
0

0101000
-13 0 +12 0 *
Ed
 1e-07 1 1 1
2  2 1 0 0 3.14159265358979
0

0101100
+12 0 -12 0 *
Ed
 1e-07 1 1 0
1  2 0 4.71238898038469 7.85398163397448
2  3 1 0 4.71238898038469 7.85398163397448
0

0101000
+12 0 -13 0 *
Ed
 1e-07 1 1 1
2  4 1 0 0 3.14159265358979
0

0101100
-13 0 +13 0 *
Wi

0101000
+11 0 +10 0 -9 0 -8 0 *
Fa
0  1e-07 1 0

0111000
+7 0 *
Wi

0101000
+11 0 -9 0 *
Fa
0  1e-07 2 0

0111000
+5 0 *
Sh

0101100
+6 0 -4 0 *
So

0100000
+3 0 *
Co

1100000
+2 0 *

+1 0 
##EGADS HEADER FILE-REV 1 ##
0
  1  1  2  2  4  2  3
1 5 1
_body
3
1 5 1
_brch
3
2 8 3
_tParams
 8.087436016540e-02  3.234974406616e-03  1.500000000000e+01 
    2 0 3
1 5 2
_body
1 2 
1 5 2
_brch
1 2 
1 7 3
_faceID
1 2 1 
    2 1 3
1 5 2
_body
2 3 
1 5 2
_brch
2 3 
1 7 3
_faceID
2 3 1 
    4 0 2
1 5 2
_body
3 0 
1 7 5
_edgeID
1 2 2 3 1 
    4 1 2
1 5 2
_body
1 -3 
1 7 5
_edgeID
0 0 1 2 1 
    4 2 2
1 5 2
_body
3 0 
1 7 5
_edgeID
1 2 2 3 2 
    4 3 2
1 5 2
_body
1 -3 
1 7 5
_edgeID
0 0 1 2 2 
    0 0 0
