DBRep_DrawableShape

CASCADE Topology V1, (c) Matra-Datavision
Locations 0
Curve2ds 4
1 0 1.5707963267948966 1 0 
1 0 -6.2831853071795862 0 1 
1 0 -1.5707963267948966 1 0 
1 3.1415926535897931 0 0 1 
Curves 2
2 0 0 0 -2.4492935982947064e-16 -1 0 1 -2.4492935982947064e-16 0 0 0 1 1
7 0 0  8 9 2  -2.2204460492503131e-16 -2.4651903288156619e-32 -1  -0.39269908169872431 4.8091767343044917e-17 -0.99999999999999878  -0.78540282094168468 9.6184105070752964e-17 -0.82371721549250176  -1.0857842572054017 1.3297022151511942e-16 -0.47146844414510591  -1.2018057290002218 1.4717875392170564e-16 -1.4876988529977085e-14  -1.0857842572054017 1.3297022151511954e-16 0.47146844414513028  -0.78540282094168512 9.6184105070752853e-17 0.82371721549248922  -0.39269908169872403 4.8091767343044966e-17 1.0000000000000024  -2.2204460492503131e-16 -2.4651903288156619e-32 1 
 -1.5707963267948966 9 1.5707963267948966 9
Polygon3D 0
PolygonOnTriangulations 0
Surfaces 2
10 0 3.1415926535897931 -1.5707963267948966 1.5707963267948966
4 0 0 0 0 0 1 1 0 -0 -0 1 0 1
1 -2 0 -2 -0 1 0 0 0 1 1 0 -0 
Triangulations 0

TShapes 13
Ve
1e-05
6.12323399573677e-17 -1.49975978266186e-32 1
0 0

0101101
*
Ed
 1e-07 1 1 1
2  1 1 0 0 3.14159265358979
0

0101000
-13 0 +13 0 *
Ve
1e-05
6.12323399573677e-17 -1.49975978266186e-32 -1
0 0

0101101
*
Ed
 1.00000000244929e-07 1 1 0
1  1 0 4.71238898038469 7.85398163397448
2  2 1 0 4.71238898038469 7.85398163397448
0

0101000
+11 0 -13 0 *
Ed
 1e-07 1 1 1
2  3 1 0 0 3.14159265358979
0

0101000
+11 0 -11 0 *
Ed
 1e-05 1 1 0
1  2 0 -1.5707963267949 1.5707963267949
2  4 1 0 -1.5707963267949 1.5707963267949
0

0101000
-13 0 +11 0 *
Wi

0101100
-12 0 -10 0 +9 0 +8 0 *
Fa
0  1e-07 1 0

0111000
+7 0 *
Wi

0101100
+8 0 -10 0 *
Fa
0  1e-07 2 0

0111000
+5 0 *
Sh

0101100
+6 0 -4 0 *
So

0100000
+3 0 *
Co

1100000
+2 0 *

+1 0 
##EGADS HEADER FILE-REV 1 ##
0
  1  1  2  2  4  2  3
1 5 1
_body
3
1 5 1
_brch
3
2 8 3
_tParams
 7.548312104199e-02  3.019324841680e-03  1.500000000000e+01 
    2 0 4
1 5 2
_body
1 0 
1 5 2
_brch
1 0 
1 5 2
_hist
1 3 
1 7 3
_faceID
1 0 1 
    2 1 4
1 5 2
_body
2 3 
1 5 2
_brch
2 3 
1 5 2
_hist
2 3 
1 7 3
_faceID
2 3 1 
    4 0 3
1 5 2
_body
1 -3 
1 6 1
_nface
1
1 7 5
_edgeID
0 0 1 0 2 
    4 1 3
1 5 2
_body
3 0 
1 6 1
_nface
2
1 7 5
_edgeID
1 0 2 3 2 
    4 2 3
1 5 2
_body
1 -3 
1 6 1
_nface
1
1 7 5
_edgeID
0 0 1 0 1 
    4 3 3
1 5 2
_body
3 0 
1 6 1
_nface
2
1 7 5
_edgeID
1 0 2 3 1 
    5 0 2
1 7 1
_nodeID
1
1 6 1
_nedge
3
    5 1 2
1 7 1
_nodeID
2
1 6 1
_nedge
3
    0 0 0
