DBRep_DrawableShape

CASCADE Topology V1, (c) Matra-Datavision
Locations 0
Curve2ds 8
1 0 5 1 0 
1 0 -0 0 1 
1 6.2831853071795862 -0 0 1 
1 0 0 1 0 
1 3.1415926535897931 0 0 1 
1 3.1415926535897931 0 0 1 
1 0 0 1 0 
1 0 5 1 0 
Curves 6
2 0 0 5 0 0 1 1 0 0 0 1 0 0.5
1 0.5 -1.2246467991473532e-16 0 0 0 1 
2 0 0 0 0 0 1 1 0 0 0 1 0 0.5
7 0 0  1 2 2  -0.5 6.123233995736766e-17 0  -0.5 6.123233995736766e-17 5 
 0 2 5 2
2 0 0 0 0 0 1 1 0 0 0 1 0 0.5
2 0 0 5 0 0 1 1 0 0 0 1 0 0.5
Polygon3D 0
PolygonOnTriangulations 0
Surfaces 4
10 0 3.1415926535897931 0 5
2 0 0 0 0 0 1 1 0 0 0 1 0 0.5
10 3.1415926535897931 6.2831853071795862 0 5
2 0 0 0 0 0 1 1 0 0 0 1 0 0.5
1 0 0 5 0 0 1 1 0 0 0 1 0 
1 0 0 0 0 0 1 1 0 0 0 1 0 
Triangulations 0

TShapes 21
Ve
1e-07
-0.5 6.12323399573677e-17 5
0 0

0101101
*
Ve
1e-07
0.5 -1.22464679914735e-16 5
0 0

0101101
*
Ed
 1e-07 1 1 0
1  1 0 0 3.14159265358979
2  1 1 0 0 3.14159265358979
0

0101000
-21 0 +20 0 *
Ve
1e-07
0.5 -1.22464679914735e-16 0
0 0

0101101
*
Ed
 1e-07 1 1 0
1  2 0 0 5
2  2 1 0 0 5
2  3 2 0 0 5
0

0101000
-20 0 +18 0 *
Ve
1e-07
-0.5 6.12323399573677e-17 0
0 0

0101101
*
Ed
 1e-07 1 1 0
1  3 0 0 3.14159265358979
2  4 1 0 0 3.14159265358979
0

0101000
+18 0 -16 0 *
Ed
 1e-05 1 1 0
1  4 0 0 5
2  5 1 0 0 5
2  6 2 0 0 5
0

0101000
+16 0 -21 0 *
Wi

0101100
-19 0 -17 0 +15 0 +14 0 *
Fa
0  1e-07 1 0

0111000
+13 0 *
Ed
 1e-07 1 1 0
1  5 0 3.14159265358979 6.28318530717959
2  7 2 0 3.14159265358979 6.28318530717959
0

0101000
+16 0 -18 0 *
Ed
 1e-07 1 1 0
1  6 0 3.14159265358979 6.28318530717959
2  8 2 0 3.14159265358979 6.28318530717959
0

0101000
-20 0 +21 0 *
Wi

0101100
+11 0 +17 0 -10 0 -14 0 *
Fa
0  1e-07 2 0

0111000
+9 0 *
Wi

0101100
+19 0 +10 0 *
Fa
0  1e-07 3 0

0111000
+7 0 *
Wi

0101100
-15 0 -11 0 *
Fa
0  1e-07 4 0

0111000
-5 0 *
Sh

0101100
+12 0 +8 0 +6 0 -4 0 *
So

0100100
+3 0 *
Co

1100000
+2 0 *

+1 0 
##EGADS HEADER FILE-REV 1 ##
0
  1  1  4  4  6  4  3
1 5 1
_body
1
1 5 1
_brch
1
2 8 3
_tParams
 1.307266915563e-01  5.229067662253e-03  1.500000000000e+01 
    2 0 4
1 5 2
_body
1 3 
1 5 2
_brch
1 3 
1 7 3
_faceID
1 3 1 
1 5 1
_hist
1
    2 1 4
1 5 2
_body
1 4 
1 5 2
_brch
1 4 
1 7 3
_faceID
1 4 1 
1 5 1
_hist
1
    2 2 4
1 5 2
_body
1 2 
1 5 2
_brch
1 2 
1 7 3
_faceID
1 2 1 
1 5 1
_hist
1
    2 3 4
1 5 2
_body
1 1 
1 5 2
_brch
1 1 
1 7 3
_faceID
1 1 1 
1 5 1
_hist
1
    4 0 3
1 5 2
_body
1 203 
1 7 5
_edgeID
1 2 1 3 1 
1 6 1
_nface
2
    4 1 3
1 5 2
_body
1 304 
1 7 5
_edgeID
1 3 1 4 1 
1 6 1
_nface
2
    4 2 3
1 5 2
_body
1 103 
1 7 5
_edgeID
1 1 1 3 1 
1 6 1
_nface
2
    4 3 3
1 5 2
_body
1 304 
1 7 5
_edgeID
1 3 1 4 2 
1 6 1
_nface
2
    4 4 3
1 5 2
_body
1 104 
1 7 5
_edgeID
1 1 1 4 1 
1 6 1
_nface
2
    4 5 3
1 5 2
_body
1 204 
1 7 5
_edgeID
1 2 1 4 1 
1 6 1
_nface
2
    5 0 2
1 7 1
_nodeID
1
1 6 1
_nedge
3
    5 1 2
1 7 1
_nodeID
2
1 6 1
_nedge
3
    5 2 2
1 7 1
_nodeID
3
1 6 1
_nedge
3
    5 3 2
1 7 1
_nodeID
4
1 6 1
_nedge
3
    0 0 0
