DBRep_DrawableShape

CASCADE Topology V1, (c) Matra-Datavision
Locations 0
Curve2ds 8
1 0 1.5707963267948966 1 0 
1 3.1415926535897931 0 0 1 
1 3.1415926535897931 0 0 1 
1 0 -1.5707963267948966 1 0 
1 6.2831853071795862 -6.2831853071795862 0 1 
1 0 -6.2831853071795862 0 1 
1 0 1.5707963267948966 1 0 
1 0 -1.5707963267948966 1 0 
Curves 14
7 0 0  8 9 2  -2.2204460492503131e-16 -2.4651903288156619e-32 -1  -0.39269908169872431 4.8091767343044917e-17 -0.99999999999999878  -0.78540282094168468 9.6184105070752964e-17 -0.82371721549250176  -1.0857842572054017 1.3297022151511942e-16 -0.47146844414510591  -1.2018057290002218 1.4717875392170564e-16 -1.4876988529977085e-14  -1.0857842572054017 1.3297022151511954e-16 0.47146844414513028  -0.78540282094168512 9.6184105070752853e-17 0.82371721549248922  -0.39269908169872403 4.8091767343044966e-17 1.0000000000000024  -2.2204460492503131e-16 -2.4651903288156619e-32 1 
 -1.5707963267948966 9 1.5707963267948966 9
2 0 0 0 -2.4492935982947064e-16 -1 0 1 -2.4492935982947064e-16 0 0 0 1 1
1 -0.10000000000000001 -0.10000000000000001 -0.10000000000000001 0 0 1 
1 -0.10000000000000001 -0.10000000000000001 0.10000000000000001 -0 1 0 
1 -0.10000000000000001 0.10000000000000001 -0.10000000000000001 0 0 1 
1 -0.10000000000000001 -0.10000000000000001 -0.10000000000000001 -0 1 0 
1 -0.10000000000000001 -0.10000000000000001 -0.10000000000000001 1 0 -0 
1 0.10000000000000001 -0.10000000000000001 -0.10000000000000001 0 0 1 
1 -0.10000000000000001 -0.10000000000000001 0.10000000000000001 1 0 -0 
1 -0.10000000000000001 0.10000000000000001 0.10000000000000001 1 0 -0 
1 0.10000000000000001 -0.10000000000000001 0.10000000000000001 0 1 0 
1 -0.10000000000000001 0.10000000000000001 -0.10000000000000001 1 0 -0 
1 0.10000000000000001 0.10000000000000001 -0.10000000000000001 0 0 1 
1 0.10000000000000001 -0.10000000000000001 -0.10000000000000001 -0 1 0 
Polygon3D 0
PolygonOnTriangulations 0
Surfaces 8
10 3.1415926535897931 6.2831853071795862 -1.5707963267948966 1.5707963267948966
4 0 0 0 0 0 1 1 0 -0 -0 1 0 1
10 0 3.1415926535897931 -1.5707963267948966 1.5707963267948966
4 0 0 0 0 0 1 1 0 -0 -0 1 0 1
1 -0.10000000000000001 -0.10000000000000001 -0.10000000000000001 1 0 -0 0 0 1 0 -1 0 
1 -0.10000000000000001 -0.10000000000000001 -0.10000000000000001 -0 1 0 0 0 1 1 0 -0 
1 -0.10000000000000001 -0.10000000000000001 0.10000000000000001 0 0 1 1 0 -0 -0 1 0 
1 -0.10000000000000001 0.10000000000000001 -0.10000000000000001 -0 1 0 0 0 1 1 0 -0 
1 -0.10000000000000001 -0.10000000000000001 -0.10000000000000001 0 0 1 1 0 -0 -0 1 0 
1 0.10000000000000001 -0.10000000000000001 -0.10000000000000001 1 0 -0 0 0 1 0 -1 0 
Triangulations 0

TShapes 48
Ve
1e-05
6.12323399573677e-17 -1.49975978266186e-32 1
0 0

0101101
*
Ed
 1e-07 1 1 1
2  1 1 0 3.14159265358979 6.28318530717959
0

0101100
-48 0 +48 0 *
Ve
1e-05
6.12323399573677e-17 -1.49975978266186e-32 -1
0 0

0101101
*
Ed
 1e-05 1 1 0
1  1 0 -1.5707963267949 1.5707963267949
2  2 1 0 -1.5707963267949 1.5707963267949
2  3 2 0 -1.5707963267949 1.5707963267949
0

0101000
-48 0 +46 0 *
Ed
 1e-07 1 1 1
2  4 1 0 3.14159265358979 6.28318530717959
0

0101100
+46 0 -46 0 *
Ed
 1e-07 1 1 0
1  2 0 4.71238898038469 7.85398163397448
2  5 1 0 4.71238898038469 7.85398163397448
2  6 2 0 4.71238898038469 7.85398163397448
0

0101000
+46 0 -48 0 *
Wi

0101100
-47 0 -45 0 +44 0 +43 0 *
Fa
0  1e-07 1 0

0111000
+42 0 *
Ed
 1e-07 1 1 1
2  7 2 0 0 3.14159265358979
0

0101100
-48 0 +48 0 *
Ed
 1e-07 1 1 1
2  8 2 0 0 3.14159265358979
0

0101100
+46 0 -46 0 *
Wi

0101100
-40 0 -43 0 +39 0 +45 0 *
Fa
0  1e-07 2 0

0111000
+38 0 *
Sh

0101100
+41 0 +37 0 *
Ve
1e-07
-0.1 -0.1 0.1
0 0

0101101
*
Ve
1e-07
-0.1 -0.1 -0.1
0 0

0101101
*
Ed
 1e-07 1 1 0
1  3 0 0 0.2
0

0101000
-35 0 +34 0 *
Ve
1e-07
-0.1 0.1 0.1
0 0

0101101
*
Ed
 1e-07 1 1 0
1  4 0 0 0.2
0

0101000
-32 0 +35 0 *
Ve
1e-07
-0.1 0.1 -0.1
0 0

0101101
*
Ed
 1e-07 1 1 0
1  5 0 0 0.2
0

0101000
-32 0 +30 0 *
Ed
 1e-07 1 1 0
1  6 0 0 0.2
0

0101000
-30 0 +34 0 *
Wi

0101000
-33 0 -31 0 +29 0 +28 0 *
Fa
0  1e-07 3 0

0111000
+27 0 *
Ve
1e-07
0.1 -0.1 -0.1
0 0

0101101
*
Ed
 1e-07 1 1 0
1  7 0 0 0.2
0

0101000
-25 0 +34 0 *
Ve
1e-07
0.1 -0.1 0.1
0 0

0101101
*
Ed
 1e-07 1 1 0
1  8 0 0 0.2
0

0101000
-23 0 +25 0 *
Ed
 1e-07 1 1 0
1  9 0 0 0.2
0

0101000
-23 0 +35 0 *
Wi

0101000
-24 0 -22 0 +21 0 +33 0 *
Fa
0  1e-07 4 0

0111000
+20 0 *
Ve
1e-07
0.1 0.1 0.1
0 0

0101101
*
Ed
 1e-07 1 1 0
1  10 0 0 0.2
0

0101000
-18 0 +32 0 *
Ed
 1e-07 1 1 0
1  11 0 0 0.2
0

0101000
-18 0 +23 0 *
Wi

0101000
-31 0 -17 0 +16 0 +21 0 *
Fa
0  1e-07 5 0

0111000
+15 0 *
Ve
1e-07
0.1 0.1 -0.1
0 0

0101101
*
Ed
 1e-07 1 1 0
1  12 0 0 0.2
0

0101000
-13 0 +30 0 *
Ed
 1e-07 1 1 0
1  13 0 0 0.2
0

0101000
-18 0 +13 0 *
Wi

0101000
-12 0 -11 0 +17 0 +29 0 *
Fa
0  1e-07 6 0

0111000
+10 0 *
Ed
 1e-07 1 1 0
1  14 0 0 0.2
0

0101000
-13 0 +25 0 *
Wi

0101000
-28 0 -12 0 +8 0 +24 0 *
Fa
0  1e-07 7 0

0111000
+7 0 *
Wi

0101000
-22 0 -16 0 +11 0 +8 0 *
Fa
0  1e-07 8 0

0111000
+5 0 *
Sh

0101100
+26 0 +19 0 -14 0 -9 0 +6 0 -4 0 *
So

0100000
+36 0 +3 0 *
Co

1100000
+2 0 *

+1 0 
##EGADS HEADER FILE-REV 1 ##
0
  1  2  8  8  18  10  3
1 5 1
_body
3
1 5 1
_brch
3
2 8 3
_tParams
 8.766876135918e-02  3.506750454367e-03  1.500000000000e+01 
    2 0 4
1 5 2
_body
1 0 
1 5 2
_brch
1 0 
1 5 2
_hist
1 3 
1 7 3
_faceID
1 0 1 
    2 1 4
1 5 2
_body
1 0 
1 5 2
_brch
1 0 
1 5 2
_hist
1 3 
1 7 3
_faceID
1 0 2 
    2 2 4
1 5 2
_body
2 1 
1 5 2
_brch
2 1 
1 5 2
_hist
2 3 
1 7 3
_faceID
2 1 1 
    2 3 4
1 5 2
_body
2 3 
1 5 2
_brch
2 3 
1 5 2
_hist
2 3 
1 7 3
_faceID
2 3 1 
    2 4 4
1 5 2
_body
2 6 
1 5 2
_brch
2 6 
1 5 2
_hist
2 3 
1 7 3
_faceID
2 6 1 
    2 5 4
1 5 2
_body
2 4 
1 5 2
_brch
2 4 
1 5 2
_hist
2 3 
1 7 3
_faceID
2 4 1 
    2 6 4
1 5 2
_body
2 5 
1 5 2
_brch
2 5 
1 5 2
_hist
2 3 
1 7 3
_faceID
2 5 1 
    2 7 4
1 5 2
_body
2 2 
1 5 2
_brch
2 2 
1 5 2
_hist
2 3 
1 7 3
_faceID
2 2 1 
    4 0 3
1 5 2
_body
1 -3 
1 6 1
_nface
1
1 7 5
_edgeID
0 0 1 0 4 
    4 1 3
1 5 2
_body
1 0 
1 6 1
_nface
2
1 7 5
_edgeID
1 0 1 0 1 
    4 2 3
1 5 2
_body
1 -3 
1 6 1
_nface
1
1 7 5
_edgeID
0 0 1 0 1 
    4 3 3
1 5 2
_body
1 0 
1 6 1
_nface
2
1 7 5
_edgeID
1 0 1 0 2 
    4 4 3
1 5 2
_body
1 -3 
1 6 1
_nface
1
1 7 5
_edgeID
0 0 1 0 3 
    4 5 3
1 5 2
_body
1 -3 
1 6 1
_nface
1
1 7 5
_edgeID
0 0 1 0 2 
    4 6 3
1 5 2
_body
2 103 
1 6 1
_nface
2
1 7 5
_edgeID
2 1 2 3 1 
    4 7 3
1 5 2
_body
2 106 
1 6 1
_nface
2
1 7 5
_edgeID
2 1 2 6 1 
    4 8 3
1 5 2
_body
2 104 
1 6 1
_nface
2
1 7 5
_edgeID
2 1 2 4 1 
    4 9 3
1 5 2
_body
2 105 
1 6 1
_nface
2
1 7 5
_edgeID
2 1 2 5 1 
    4 10 3
1 5 2
_body
2 305 
1 6 1
_nface
2
1 7 5
_edgeID
2 3 2 5 1 
    4 11 3
1 5 2
_body
2 203 
1 6 1
_nface
2
1 7 5
_edgeID
2 2 2 3 1 
    4 12 3
1 5 2
_body
2 306 
1 6 1
_nface
2
1 7 5
_edgeID
2 3 2 6 1 
    4 13 3
1 5 2
_body
2 406 
1 6 1
_nface
2
1 7 5
_edgeID
2 4 2 6 1 
    4 14 3
1 5 2
_body
2 206 
1 6 1
_nface
2
1 7 5
_edgeID
2 2 2 6 1 
    4 15 3
1 5 2
_body
2 405 
1 6 1
_nface
2
1 7 5
_edgeID
2 4 2 5 1 
    4 16 3
1 5 2
_body
2 204 
1 6 1
_nface
2
1 7 5
_edgeID
2 2 2 4 1 
    4 17 3
1 5 2
_body
2 205 
1 6 1
_nface
2
1 7 5
_edgeID
2 2 2 5 1 
    5 0 2
1 7 1
_nodeID
1
1 6 1
_nedge
4
    5 1 2
1 7 1
_nodeID
2
1 6 1
_nedge
4
    5 2 2
1 7 1
_nodeID
3
1 6 1
_nedge
3
    5 3 2
1 7 1
_nodeID
4
1 6 1
_nedge
3
    5 4 2
1 7 1
_nodeID
5
1 6 1
_nedge
3
    5 5 2
1 7 1
_nodeID
6
1 6 1
_nedge
3
    5 6 2
1 7 1
_nodeID
7
1 6 1
_nedge
3
    5 7 2
1 7 1
_nodeID
8
1 6 1
_nedge
3
    5 8 2
1 7 1
_nodeID
9
1 6 1
_nedge
3
    5 9 2
1 7 1
_nodeID
10
1 6 1
_nedge
3
    0 0 0
