DBRep_DrawableShape

CASCADE Topology V1, (c) Matra-Datavision
Locations 0
Curve2ds 12
1 0 1.5707963267948966 1 0 
1 3.1415926535897931 0 0 1 
1 3.1415926535897931 0 0 1 
1 0 -1.5707963267948966 1 0 
1 6.2831853071795862 -6.2831853071795862 0 1 
1 0 -6.2831853071795862 0 1 
1 0 1.5707963267948966 1 0 
1 0 -1.5707963267948966 1 0 
1 0 0 1 0 
1 0 2.0000000000000311 1 0 
1 6.2831853071795862 0 0 1 
1 0 0 0 1 
Curves 5
7 0 0  8 9 2  -8.8817841970012523e-16 9.8607613152626476e-32 -5.0000000000000018  -1.9634954084936356 2.4045883671522394e-16 -4.9999999999999973  -3.927014104708376 4.8092052535376717e-16 -4.118586077462485  -5.4289212860270926 6.6485110757559363e-16 -2.3573422207255956  -6.0090286450010169 7.3589376960853234e-16 2.2648549702353174e-14  -5.4289212860270712 6.6485110757559441e-16 2.3573422207255583  -3.9270141047083968 4.8092052535376619e-16 4.1185860774625045  -1.9634954084936289 2.4045883671522449e-16 4.9999999999999911  -8.8817841970012523e-16 9.8607613152626476e-32 5 
 -1.5707963267948966 9 1.5707963267948966 9
2 0 0 0 -2.4492935982947064e-16 -1 0 1 -2.4492935982947064e-16 0 0 0 1 5
2 2.0000000000000311 0 0 1 0 0 -0 1 0 0 -0 1 0.99999999999999678
2 0 0 0 1 0 0 -0 1 0 0 -0 1 0.99999999999999678
1 2.0000000000000311 0.99999999999999678 0 -1 0 0 
Polygon3D 0
PolygonOnTriangulations 0
Surfaces 5
10 3.1415926535897931 6.2831853071795862 -1.5707963267948966 1.5707963267948966
4 0 0 0 0 0 1 1 0 -0 -0 1 0 5
10 0 3.1415926535897931 -1.5707963267948966 1.5707963267948966
4 0 0 0 0 0 1 1 0 -0 -0 1 0 5
1 2.0000000000000311 0 0 1 0 0 0 -1 -0 0 -0 1 
2 2.0000000000000311 0 0 -1 -0 -0 0 1 0 -0 -0 1 0.99999999999999678
1 0 0 0 1 0 0 -0 1 0 0 -0 1 
Triangulations 0

TShapes 27
Ve
1e-05
3.06161699786838e-16 -7.49879891330929e-32 5
0 0

0101101
*
Ed
 1e-07 1 1 1
2  1 1 0 3.14159265358979 6.28318530717959
0

0101000
-27 0 +27 0 *
Ve
1e-05
3.06161699786838e-16 -7.49879891330929e-32 -5
0 0

0101101
*
Ed
 1e-05 1 1 0
1  1 0 -1.5707963267949 1.5707963267949
2  2 1 0 -1.5707963267949 1.5707963267949
2  3 2 0 -1.5707963267949 1.5707963267949
0

0101000
-27 0 +25 0 *
Ed
 1e-07 1 1 1
2  4 1 0 3.14159265358979 6.28318530717959
0

0101000
+25 0 -25 0 *
Ed
 1e-07 1 1 0
1  2 0 4.71238898038469 7.85398163397448
2  5 1 0 4.71238898038469 7.85398163397448
2  6 2 0 4.71238898038469 7.85398163397448
0

0101000
+25 0 -27 0 *
Wi

0101100
-26 0 -24 0 +23 0 +22 0 *
Fa
0  1e-07 1 0

0111000
+21 0 *
Ed
 1e-07 1 1 1
2  7 2 0 0 3.14159265358979
0

0101000
-27 0 +27 0 *
Ed
 1e-07 1 1 1
2  8 2 0 0 3.14159265358979
0

0101000
+25 0 -25 0 *
Wi

0101100
-19 0 -22 0 +18 0 +24 0 *
Fa
0  1e-07 2 0

0111000
+17 0 *
Sh

0101100
+20 0 +16 0 *
Ve
1e-07
2.00000000000003 0.999999999999997 0
0 0

0101101
*
Ed
 1e-07 1 1 0
1  3 0 0 6.28318530717959
2  9 4 0 0 6.28318530717959
0

0101000
+14 0 -14 0 *
Wi

0101100
-13 0 *
Fa
0  1e-07 3 0

0111000
+12 0 *
Ve
1e-07
0 0.999999999999997 0
0 0

0101101
*
Ed
 1e-07 1 1 0
1  4 0 0 6.28318530717959
2  10 4 0 0 6.28318530717959
0

0101000
+10 0 -10 0 *
Ed
 1e-07 1 1 0
1  5 0 0 2.00000000000003
3  11 12CN 4 0 0 2.00000000000003
0

0101000
+14 0 -10 0 *
Wi

0101100
+13 0 -9 0 -8 0 +8 0 *
Fa
0  1e-07 4 0

0111000
+7 0 *
Wi

0101100
+9 0 *
Fa
0  1e-07 5 0

0111000
+5 0 *
Sh

0101100
+11 0 +6 0 +4 0 *
So

0100000
+15 0 +3 0 *
Co

1100000
+2 0 *

+1 0 
##EGADS HEADER FILE-REV 1 ##
3
2 15 1
_despmtr_length
 2.000000000000e+00
2 15 1
_despmtr_radius
 1.000000000000e+00
2 14 1
_despmtr_outer
 5.000000000000e+00
  1  2  5  5  9  4  3
1 5 1
_body
9
1 5 1
_brch
18
2 8 3
_tParams
 4.330127105525e-01  1.732050842210e-02  1.500000000000e+01 
    2 0 4
1 5 2
_body
1 0 
1 5 2
_brch
1 0 
1 5 2
_hist
1 9 
1 7 3
_faceID
1 0 1 
    2 1 4
1 5 2
_body
1 0 
1 5 2
_brch
1 0 
1 5 2
_hist
1 9 
1 7 3
_faceID
1 0 2 
    2 2 4
1 5 2
_body
8 3 
1 5 2
_brch
17 3 
1 5 2
_hist
8 9 
1 7 3
_faceID
8 3 1 
    2 3 4
1 5 2
_body
8 4 
1 5 2
_brch
17 4 
1 5 2
_hist
8 9 
1 7 3
_faceID
8 4 1 
    2 4 4
1 5 2
_body
8 5 
1 5 2
_brch
17 5 
1 5 2
_hist
8 9 
1 7 3
_faceID
8 5 1 
    4 0 3
1 5 2
_body
1 -3 
1 6 1
_nface
1
1 7 5
_edgeID
0 0 1 0 4 
    4 1 3
1 5 2
_body
1 0 
1 6 1
_nface
2
1 7 5
_edgeID
1 0 1 0 1 
    4 2 3
1 5 2
_body
1 -3 
1 6 1
_nface
1
1 7 5
_edgeID
0 0 1 0 1 
    4 3 3
1 5 2
_body
1 0 
1 6 1
_nface
2
1 7 5
_edgeID
1 0 1 0 2 
    4 4 3
1 5 2
_body
1 -3 
1 6 1
_nface
1
1 7 5
_edgeID
0 0 1 0 3 
    4 5 3
1 5 2
_body
1 -3 
1 6 1
_nface
1
1 7 5
_edgeID
0 0 1 0 2 
    4 6 3
1 5 2
_body
8 304 
1 6 1
_nface
2
1 7 5
_edgeID
8 3 8 4 1 
    4 7 3
1 5 2
_body
8 405 
1 6 1
_nface
2
1 7 5
_edgeID
8 4 8 5 1 
    4 8 3
1 5 2
_body
8 404 
1 6 1
_nface
1
1 7 5
_edgeID
8 4 8 4 1 
    5 0 2
1 7 1
_nodeID
1
1 6 1
_nedge
4
    5 1 2
1 7 1
_nodeID
2
1 6 1
_nedge
4
    5 2 2
1 7 1
_nodeID
3
1 6 1
_nedge
2
    5 3 2
1 7 1
_nodeID
4
1 6 1
_nedge
2
    0 0 0
