DBRep_DrawableShape

CASCADE Topology V1, (c) Matra-Datavision
Locations 0
Curve2ds 4
1 0 0 1 0 
1 3.1415926535897931 0 0 1 
1 4.7123889803846897 1.5707963267948966 0 -1 
1 0 -1.5707963267948966 1 0 
Curves 15
1 0 0 0 0 0 1 
1 0 0 1 -0 1 0 
1 0 1 0 0 0 1 
1 0 0 0 -0 1 0 
1 0 0 0 1 0 -0 
1 1 0 0 0 0 1 
1 0 0 1 1 0 -0 
1 0 1 1 1 0 -0 
2 1 1 1 0 0 1 1 0 -0 -0 1 0 0.5
1 1 0 1 0 1 0 
1 1 1 0 0 0 1 
7 0 0  7 8 2  0.99999999999999978 1 0.5  0.77560052474358709 1.0000000000000022 0.500000000000003  0.55139752036295386 0.99999999999998779 0.61752185633832224  0.39976771054164029 1.0000000000000229 0.85231213088092772  0.3997677105416178 0.99999999999997813 1.1476878691190755  0.55139752036296585 1.0000000000000124 1.3824781436616742  0.77560052474358465 0.99999999999999645 1.4999999999999969  0.99999999999999978 1 1.5 
 -1.5707963267948966 8 1.5707963267948966 8
1 0 1 0 1 0 -0 
1 1 0 0 -0 1 0 
2 1 1 1 1 0 -0 0 0 1 0 -1 0 0.5
Polygon3D 0
PolygonOnTriangulations 0
Surfaces 7
1 0 0 0 1 0 -0 0 0 1 0 -1 0 
1 0 0 0 -0 1 0 0 0 1 1 0 -0 
1 0 0 1 0 0 1 1 0 -0 -0 1 0 
10 3.1415926535897931 6.2831853071795862 -1.5707963267948966 1.5707963267948966
4 1 1 1 0 0 1 1 0 -0 -0 1 0 0.5
1 0 1 0 -0 1 0 0 0 1 1 0 -0 
1 0 0 0 0 0 1 1 0 -0 -0 1 0 
1 1 0 0 1 0 -0 0 0 1 0 -1 0 
Triangulations 0

TShapes 43
Ve
1e-07
0 0 1
0 0

0101101
*
Ve
1e-07
0 0 0
0 0

0101101
*
Ed
 1e-07 1 1 0
1  1 0 0 1
0

0101000
-43 0 +42 0 *
Ve
1e-07
0 1 1
0 0

0101101
*
Ed
 1e-07 1 1 0
1  2 0 0 1
0

0101000
-40 0 +43 0 *
Ve
1e-07
0 1 0
0 0

0101101
*
Ed
 1e-07 1 1 0
1  3 0 0 1
0

0101000
-40 0 +38 0 *
Ed
 1e-07 1 1 0
1  4 0 0 1
0

0101000
-38 0 +42 0 *
Wi

0101000
-41 0 -39 0 +37 0 +36 0 *
Fa
0  1e-07 1 0

0111000
+35 0 *
Ve
1e-07
1 0 0
0 0

0101101
*
Ed
 1e-07 1 1 0
1  5 0 0 1
0

0101000
-33 0 +42 0 *
Ve
1e-07
1 0 1
0 0

0101101
*
Ed
 1e-07 1 1 0
1  6 0 0 1
0

0101000
-31 0 +33 0 *
Ed
 1e-07 1 1 0
1  7 0 0 1
0

0101000
-31 0 +43 0 *
Wi

0101000
-32 0 -30 0 +29 0 +41 0 *
Fa
0  1e-07 2 0

0111000
+28 0 *
Ve
1.0000000000111e-05
0.500006585465379 1 1
0 0

0101101
*
Ed
 1e-07 1 1 0
1  8 0 0 0.500006585465379
0

0101000
+40 0 -26 0 *
Ve
2.00001e-07
1 0.5 1
0 0

0101101
*
Ed
 1e-07 1 1 0
1  9 0 3.14159265358979 4.71238898038469
2  1 4 0 3.14159265358979 4.71238898038469
0

0101000
+26 0 -24 0 *
Ed
 1e-07 1 1 0
1  10 0 0 0.5
0

0101000
+31 0 -24 0 *
Wi

0101000
-25 0 -23 0 +22 0 +29 0 -39 0 *
Fa
0  1e-07 3 0

0111000
+21 0 *
Ve
1e-07
1 1 0
0 0

0101101
*
Ve
1e-05
1 1 0.5
0 0

0101101
*
Ed
 1e-07 1 1 0
1  11 0 0 0.5
0

0101000
+19 0 -18 0 *
Ed
 1e-05 1 1 0
1  12 0 -1.5707963267949 -3.60822483003176e-16
2  2 4 0 -1.5707963267949 -3.60822483003176e-16
0

0101000
+18 0 -26 0 *
Ed
 1e-07 1 1 0
1  13 0 0 1
0

0101000
-19 0 +38 0 *
Wi

0101000
-17 0 -16 0 +25 0 +37 0 -15 0 *
Fa
0  1e-07 5 0

0111000
+14 0 *
Ed
 1e-07 1 1 0
1  14 0 0 1
0

0101000
-19 0 +33 0 *
Wi

0101000
-36 0 -15 0 +12 0 +32 0 *
Fa
0  1e-07 6 0

0111000
+11 0 *
Ed
 1e-07 1 1 0
1  15 0 1.5707963267949 3.14159265358979
2  3 4 0 1.5707963267949 3.14159265358979
0

0101000
+24 0 -18 0 *
Wi

0101000
-22 0 -9 0 +17 0 +12 0 -30 0 *
Fa
0  1e-07 7 0

0111000
+8 0 *
Ed
 1e-07 1 1 1
2  4 4 0 3.14159265358979 4.71238898038469
0

0101100
+18 0 -18 0 *
Wi

0101000
-23 0 -9 0 +6 0 -16 0 *
Fa
0  1e-07 4 0

0111000
+5 0 *
Sh

0101100
-34 0 -27 0 +20 0 +13 0 -10 0 +7 0 -4 0 *
So

0100000
+3 0 *
Co

1100000
+2 0 *

+1 0 
##EGADS HEADER FILE-REV 1 ##
0
  1  1  7  7  16  10  3
1 5 1
_body
3
1 5 1
_brch
3
2 8 3
_tParams
 4.363900730485e-02  1.745560292194e-03  1.500000000000e+01 
    2 0 3
1 5 2
_body
1 1 
1 5 2
_brch
1 1 
1 7 3
_faceID
1 1 1 
    2 1 3
1 5 2
_body
1 3 
1 5 2
_brch
1 3 
1 7 3
_faceID
1 3 1 
    2 2 3
1 5 2
_body
1 6 
1 5 2
_brch
1 6 
1 7 3
_faceID
1 6 1 
    2 3 3
1 5 2
_body
1 4 
1 5 2
_brch
1 4 
1 7 3
_faceID
1 4 1 
    2 4 3
1 5 2
_body
1 5 
1 5 2
_brch
1 5 
1 7 3
_faceID
1 5 1 
    2 5 3
1 5 2
_body
1 2 
1 5 2
_brch
1 2 
1 7 3
_faceID
1 2 1 
    2 6 3
1 5 2
_body
2 1 
1 5 2
_brch
2 1 
1 7 3
_faceID
2 1 1 
    4 0 2
1 5 2
_body
1 103 
1 7 5
_edgeID
1 1 1 3 1 
    4 1 2
1 5 2
_body
1 106 
1 7 5
_edgeID
1 1 1 6 1 
    4 2 2
1 5 2
_body
1 104 
1 7 5
_edgeID
1 1 1 4 1 
    4 3 2
1 5 2
_body
1 105 
1 7 5
_edgeID
1 1 1 5 1 
    4 4 2
1 5 2
_body
1 305 
1 7 5
_edgeID
1 3 1 5 1 
    4 5 2
1 5 2
_body
1 203 
1 7 5
_edgeID
1 2 1 3 1 
    4 6 2
1 5 2
_body
1 306 
1 7 5
_edgeID
1 3 1 6 1 
    4 7 2
1 5 2
_body
1 406 
1 7 5
_edgeID
1 4 1 6 1 
    4 8 2
1 5 2
_body
3 0 
1 7 5
_edgeID
1 6 2 1 1 
    4 9 2
1 5 2
_body
1 206 
1 7 5
_edgeID
1 2 1 6 1 
    4 10 2
1 5 2
_body
1 204 
1 7 5
_edgeID
1 2 1 4 1 
    4 11 2
1 5 2
_body
3 0 
1 7 5
_edgeID
1 4 2 1 1 
    4 12 2
1 5 2
_body
1 405 
1 7 5
_edgeID
1 4 1 5 1 
    4 13 2
1 5 2
_body
1 205 
1 7 5
_edgeID
1 2 1 5 1 
    4 14 2
1 5 2
_body
3 0 
1 7 5
_edgeID
1 2 2 1 1 
    4 15 2
1 5 2
_body
2 -3 
1 7 5
_edgeID
0 0 2 1 1 
    0 0 0
