DBRep_DrawableShape

CASCADE Topology V1, (c) Matra-Datavision
Locations 0
Curve2ds 31
1 1 0 0 -1 
1 0 0 0 1 
1 0 0 1 0 
1 0 -1 1 0 
1 0 0 0 -1 
1 0 0 0 1 
8 0 1.2000000000000004
1 1.5707963267948966 0 0 1 
8 0 1.2000000000000004
1 -0.10000000000000001 -0.5 1 0 
1 1 0 0 1 
1 0 1 1 0 
1 1 0 0 -1 
1 1 0 0 1 
1 1 0 0 1 
1 0 0 1 0 
1 0 1.1000000000000001 1 0 
2 0 0 1 0 -0 1 0.5
1 0 0 0 1 
1 0 1 1 0 
1 0 -1 1 0 
1 0 1 1 0 
1 0 0 0 -1 
1 1 0 0 1 
1 0 0 0 1 
1 0 0 1 0 
1 0 0.10000000000000001 1 0 
2 0 0 1 0 -0 1 0.5
1 0 -0 0 1 
1 6.2831853071795862 -0 0 1 
1 -0.10000000000000001 0.5 1 0 
1 0 0 1 0 
1 0 1 1 0 
Curves 15
1 0 0 1 -0 1 0 
1 0 1 0 0 0 1 
1 0 0 0 -0 1 0 
1 0 0.5 -0.10000000000000001 0 0 1 
1 0 1 1 1 0 -0 
1 1 0 1 0 1 0 
1 0 0 1 1 0 -0 
2 0 0 1 0 0 1 1 0 -0 -0 1 0 0.5
1 0 1 0 1 0 -0 
1 1 1 0 0 0 1 
1 1 0 0 -0 1 0 
1 0 0 0 1 0 -0 
2 0 0 0 0 0 1 1 0 -0 -0 1 0 0.5
1 0.5 -1.2246467991473532e-16 -0.10000000000000001 0 0 1 
1 1 0 0 0 0 1 
Polygon3D 0
PolygonOnTriangulations 0
Surfaces 8
1 0 0 0 1 0 -0 0 0 1 0 -1 0 
1 0 0 1 0 0 1 1 0 -0 -0 1 0 
1 0 1 0 -0 1 0 0 0 1 1 0 -0 
1 0 0 0 0 0 1 1 0 -0 -0 1 0 
10 0 3.1415926535897931 0 1.2000000000000004
2 0 0 -0.10000000000000001 0 0 1 1 0 -0 -0 1 0 0.5
1 1 0 0 1 0 -0 0 0 1 0 -1 0 
1 0 0 0 -0 1 0 0 0 1 1 0 -0 
10 3.1415926535897931 6.2831853071795862 0 1.2000000000000004
2 0 0 -0.10000000000000001 0 0 1 1 0 -0 -0 1 0 0.5
Triangulations 0

TShapes 42
Ve
2.00001e-07
0 0.5 1
0 0

0101101
*
Ve
1e-07
0 1 1
0 0

0101101
*
Ed
 1e-07 1 1 0
1  1 0 0.5 1
2  1 1 0 0.5 1
2  2 2 0 0.5 1
0

0101000
+42 0 -41 0 *
Ve
1e-07
0 1 0
0 0

0101101
*
Ed
 1e-07 1 1 0
1  2 0 0 1
2  3 3 0 0 1
2  4 1 0 0 1
0

0101000
-41 0 +39 0 *
Ve
2.00001e-07
0 0.5 0
0 0

0101101
*
Ed
 1e-07 1 1 0
1  3 0 0.5 1
2  5 1 0 0.5 1
2  6 4 0 0.5 1
0

0101000
+37 0 -39 0 *
Ed
 1e-07 1 1 0
1  4 0 0.1 1.1
2  7 5 0 0.1 1.1
2  8 1 0 0.1 1.1
0

0101000
+37 0 -42 0 *
Wi

0101000
-40 0 +38 0 +36 0 -35 0 *
Fa
0  1e-07 1 0

0111000
+34 0 *
Ve
1e-07
1 1 1
0 0

0101101
*
Ed
 1e-07 1 1 0
1  5 0 0 1
2  9 3 0 0 1
2  10 2 0 0 1
0

0101000
-32 0 +41 0 *
Ve
1e-07
1 0 1
0 0

0101101
*
Ed
 1e-07 1 1 0
1  6 0 0 1
2  11 6 0 0 1
2  12 2 0 0 1
0

0101000
-32 0 +30 0 *
Ve
1.00000000061232e-07
0.5 -6.12323399573677e-17 1
0 0

0101101
*
Ed
 1e-07 1 1 0
1  7 0 0.5 1
2  13 7 0 0.5 1
2  14 2 0 0.5 1
0

0101000
+28 0 -30 0 *
Ed
 1e-07 1 1 0
1  8 0 0 1.5707963267949
2  15 5 0 0 1.5707963267949
2  16 2 0 0 1.5707963267949
0

0101000
+28 0 -42 0 *
Wi

0101000
-40 0 -31 0 +29 0 +27 0 -26 0 *
Fa
0  1e-07 2 0

0111000
+25 0 *
Ve
1e-07
1 1 0
0 0

0101101
*
Ed
 1e-07 1 1 0
1  9 0 0 1
2  17 3 0 0 1
2  18 4 0 0 1
0

0101000
-23 0 +39 0 *
Ed
 1e-07 1 1 0
1  10 0 0 1
2  19 6 0 0 1
2  20 3 0 0 1
0

0101000
-32 0 +23 0 *
Wi

0101000
-22 0 -21 0 +31 0 +38 0 *
Fa
0  1e-07 3 0

0111000
+20 0 *
Ve
1e-07
1 0 0
0 0

0101101
*
Ed
 1e-07 1 1 0
1  11 0 0 1
2  21 6 0 0 1
2  22 4 0 0 1
0

0101000
-23 0 +18 0 *
Ve
1.00000000061232e-07
0.5 -6.12323399573677e-17 0
0 0

0101101
*
Ed
 1e-07 1 1 0
1  12 0 0.5 1
2  23 7 0 0.5 1
2  24 4 0 0.5 1
0

0101000
+16 0 -18 0 *
Ed
 1e-07 1 1 0
1  13 0 0 1.5707963267949
2  25 5 0 0 1.5707963267949
2  26 4 0 0 1.5707963267949
0

0101000
+16 0 -37 0 *
Wi

0101000
-36 0 -22 0 +17 0 +15 0 -14 0 *
Fa
0  1e-07 4 0

0111000
+13 0 *
Ed
 1e-07 1 1 0
1  14 0 0.1 1.1
2  27 5 0 0.1 1.1
2  28 8 0 0.1 1.1
2  29 7 0 0.1 1.1
0

0101000
+16 0 -28 0 *
Wi

0101000
-26 0 +35 0 +14 0 -11 0 *
Fa
0  1e-07 5 0

0111000
+10 0 *
Ed
 1e-07 1 1 0
1  15 0 0 1
2  30 6 0 0 1
2  31 7 0 0 1
0

0101000
-30 0 +18 0 *
Wi

0101000
-8 0 -29 0 +21 0 +17 0 *
Fa
0  1e-07 6 0

0111000
+7 0 *
Wi

0101000
-15 0 -8 0 +27 0 +11 0 *
Fa
0  1e-07 7 0

0111000
+5 0 *
Sh

0101000
-33 0 +24 0 +19 0 -12 0 -9 0 +6 0 -4 0 *
So

0100000
+3 0 *
Co

1100000
+2 0 *

+1 0 
##EGADS HEADER FILE-REV 1 ##
0
  1  1  7  7  15  10  0
    0 0 0
