DBRep_DrawableShape

CASCADE Topology V1, (c) Matra-Datavision
Locations 0
Curve2ds 13
1 0 2 1 0 
1 0 2 1 0 
1 3.1415926535897931 0 0 1 
1 3.1415926535897931 0 0 1 
1 0 -0 0 1 
1 6.2831853071795862 -0 0 1 
1 -1.5707963267948966 0 1 0 
1 0 0 1 0 
1 -1.5707963267948966 0 1 0 
1 4.7123889803846897 0 1 0 
1 6.2831853071795862 0 0 1 
1 0 0 0 1 
1 0 1.0154266118857493 1 0 
Curves 8
2 2 0 0 1 0 0 -0 0 1 0 -1 0 1
2 2 0 0 1 0 0 -0 0 1 0 -1 0 1
7 0 0  1 2 2  0 -1.2246467991473532e-16 -1  2 -1.2246467991473532e-16 -1 
 0 2 2 2
1 0 2.4492935982947064e-16 1 1 0 0 
2 0 0 0 1 0 0 -0 1 0 0 -0 1 1
2 0 0 0 1 0 0 -0 1 0 0 -0 1 1
2 0 0 0 1 0 0 -0 1 0 0 -0 1 1
1 0 1 0 -0.17364817766695453 -0.9848077530122038 0 
Polygon3D 0
PolygonOnTriangulations 0
Surfaces 4
1 2 0 0 1 0 0 -0 0 1 0 -1 0 
10 0 3.1415926535897931 0 2
2 0 0 0 1 0 0 -0 0 1 0 -1 0 1
10 3.1415926535897931 6.2831853071795862 0 2
2 0 0 0 1 0 0 -0 0 1 0 -1 0 1
3 0 0 0 -1 -0 -0 0 1 0 -0 -0 1 1
-1.3962634015954392
Triangulations 0

TShapes 26
Ve
1e-05
2 -1.22464679914735e-16 -1
0 0

0101101
*
Ve
1e-07
2 2.44929359829471e-16 1
0 0

0101101
*
Ed
 1e-07 1 1 0
1  1 0 0 3.14159265358979
2  1 2 0 0 3.14159265358979
0

0101000
-26 0 +25 0 *
Ed
 1e-07 1 1 0
1  2 0 3.14159265358979 6.28318530717959
2  2 3 0 3.14159265358979 6.28318530717959
0

0101000
-25 0 +26 0 *
Wi

0101100
+24 0 +23 0 *
Fa
0  1e-07 1 0

0111000
+22 0 *
Ve
1e-05
0 -1.22464679914735e-16 -1
0 0

0101101
*
Ed
 1e-05 1 1 0
1  3 0 0 2
2  3 2 0 0 2
2  4 3 0 0 2
0

0101000
+20 0 -26 0 *
Ve
1e-07
0 2.44929359829471e-16 1
0 0

0101101
*
Ed
 1e-07 1 1 0
1  4 0 0 2
2  5 2 0 0 2
2  6 3 0 0 2
0

0101000
-25 0 +18 0 *
Ed
 1e-07 1 1 0
1  5 0 1.5707963267949 4.71238898038469
2  7 2 0 1.5707963267949 4.71238898038469
2  8 4 0 1.5707963267949 4.71238898038469
0

0101000
+18 0 -20 0 *
Wi

0101000
-24 0 +19 0 -17 0 +16 0 *
Fa
0  1e-07 2 0

0111000
+15 0 *
Ve
1e-07
0 1 0
0 0

0101101
*
Ed
 1e-07 1 1 0
1  6 0 4.71238898038469 6.28318530717959
2  9 3 0 4.71238898038469 6.28318530717959
2  8 4 0 4.71238898038469 6.28318530717959
0

0101000
+20 0 -13 0 *
Ed
 1e-07 1 1 0
1  7 0 0 1.5707963267949
2  10 3 0 0 1.5707963267949
2  8 4 0 0 1.5707963267949
0

0101000
+13 0 -18 0 *
Wi

0101000
+12 0 -19 0 +11 0 -23 0 +17 0 *
Fa
0  1e-07 3 0

0111000
+10 0 *
Ve
1e-07
-0.17632698070849 0 0
0 0

0101101
*
Ed
 1e-07 1 1 0
1  8 0 0 1.01542661188575
3  11 12CN 4 0 0 1.01542661188575
0

0101000
+13 0 -8 0 *
Ed
 1e-07 1 1 1
2  13 4 0 0 6.28318530717959
0

0101100
+8 0 -8 0 *
Wi

0101000
-7 0 -6 0 +7 0 +12 0 +16 0 +11 0 *
Fa
0  1e-07 4 0

0111000
+5 0 *
Sh

0101100
+21 0 +14 0 +9 0 -4 0 *
So

0100000
+3 0 *
Co

1100000
+2 0 *

+1 0 
##EGADS HEADER FILE-REV 1 ##
0
  1  1  4  4  9  6  3
1 5 1
_body
8
1 5 1
_brch
15
2 8 3
_tParams
 9.390482126650e-02  3.756192850660e-03  1.500000000000e+01 
    2 0 4
1 5 2
_body
7 2 
1 5 2
_brch
14 2 
1 5 2
_hist
7 8 
1 7 3
_faceID
7 2 1 
    2 1 4
1 5 2
_body
7 3 
1 5 2
_brch
14 3 
1 5 2
_hist
7 8 
1 7 3
_faceID
7 3 1 
    2 2 4
1 5 2
_body
7 4 
1 5 2
_brch
14 4 
1 5 2
_hist
7 8 
1 7 3
_faceID
7 4 1 
    2 3 4
1 5 2
_body
6 4 
1 5 2
_brch
13 4 
1 5 2
_hist
6 8 
1 7 3
_faceID
6 4 1 
    4 0 3
1 5 2
_body
7 203 
1 6 1
_nface
2
1 7 5
_edgeID
7 2 7 3 1 
    4 1 3
1 5 2
_body
7 204 
1 6 1
_nface
2
1 7 5
_edgeID
7 2 7 4 1 
    4 2 3
1 5 2
_body
7 304 
1 6 1
_nface
2
1 7 5
_edgeID
7 3 7 4 1 
    4 3 3
1 5 2
_body
7 304 
1 6 1
_nface
2
1 7 5
_edgeID
7 3 7 4 2 
    4 4 3
1 5 2
_body
8 0 
1 7 5
_edgeID
6 4 7 3 1 
1 6 1
_nface
2
    4 5 3
1 5 2
_body
8 0 
1 7 5
_edgeID
6 4 7 4 1 
1 6 1
_nface
2
    4 6 3
1 5 2
_body
8 0 
1 7 5
_edgeID
6 4 7 4 2 
1 6 1
_nface
2
    4 7 3
1 5 2
_body
6 404 
1 6 1
_nface
1
1 7 5
_edgeID
6 4 6 4 1 
    4 8 3
1 5 2
_body
6 -3 
1 6 1
_nface
1
1 7 5
_edgeID
0 0 6 4 1 
    5 0 2
1 7 1
_nodeID
1
1 6 1
_nedge
3
    5 1 2
1 7 1
_nodeID
2
1 6 1
_nedge
3
    5 2 2
1 7 1
_nodeID
3
1 6 1
_nedge
3
    5 3 2
1 7 1
_nodeID
4
1 6 1
_nedge
3
    5 4 2
1 7 1
_nodeID
5
1 6 1
_nedge
3
    5 5 2
1 7 1
_nodeID
6
1 6 1
_nedge
2
    0 0 0
