DBRep_DrawableShape

CASCADE Topology V1, (c) Matra-Datavision
Locations 0
Curve2ds 24
1 0 1 1 0 
2 0 0 1 0 -0 1 0.55000000000000004
1 1.5707963267948966 0 0 1 
1 0.10000000000000001 -0.55000000000000004 1 0 
1 0 0 1 0 
2 0 0 1 0 -0 1 0.55000000000000004
1 0 -0 0 1 
1 0.10000000000000001 0.55000000000000004 1 0 
1 0 0 0 1 
1 1.1000000000000001 0 0 -1 
1 0 0 1 0 
1 1.1000000000000001 0 0 1 
2 0 0 1 0 -0 1 0.5
1 0 1 1 0 
1 0.10000000000000001 0 0 -1 
1 0 0 0 1 
1 0.10000000000000001 -0.5 1 0 
1 1.5707963267948966 0 0 1 
1 0 0 -1 0 
1 0.10000000000000001 0 0 -1 
2 0 0 1 0 -0 1 0.5
1 0 0 1 0 
1 0.10000000000000001 0.5 1 0 
1 0 -0 0 1 
Curves 12
2 0 0 1 0 -0 1 1 0 -0 0 1 0 0.55000000000000004
1 0 0.55000000000000004 0 0 0 1 
2 0 0 0 0 -0 1 1 0 -0 0 1 0 0.55000000000000004
1 0.55000000000000004 -1.3471114790620887e-16 0 0 0 1 
1 0 0 1 -0 1 0 
1 0 0 1 1 0 -0 
2 0 0 1 0 -0 1 1 0 -0 0 1 0 0.5
1 0 0 0 -0 1 0 
1 0 0.5 0 0 0 1 
1 0 0 0 -1 -0 0 
2 0 0 0 0 -0 1 1 0 -0 0 1 0 0.5
1 0.5 -1.2246467991473532e-16 0 0 0 1 
Polygon3D 0
PolygonOnTriangulations 0
Surfaces 6
10 0 3.1415926535897931 0 1
2 0 0 0 0 0 1 1 0 -0 0 1 0 0.55000000000000004
1 0 0 1 0 0 1 1 0 -0 -0 1 0 
1 0 0 -0.10000000000000001 1 0 -0 0 0 1 0 -1 0 
1 0 0 0 0 0 1 1 0 -0 0 1 0 
1 0 0 -0.10000000000000001 -0 1 0 0 0 1 1 0 -0 
10 0 3.1415926535897931 0 1
2 0 0 0 0 0 1 1 0 -0 0 1 0 0.5
Triangulations 0

TShapes 35
Ve
1e-07
0.55 -1.34711147906209e-16 1
0 0

0101101
*
Ve
1.00000000016839e-07
1.68388934882761e-17 0.55 1
0 0

0101101
*
Ed
 1e-07 1 1 0
1  1 0 0 1.5707963267949
2  1 1 0 0 1.5707963267949
2  2 2 0 0 1.5707963267949
0

0101000
+35 0 -34 0 *
Ve
2.00001e-07
3.36777869765522e-17 0.55 0
0 0

0101101
*
Ed
 1e-07 1 1 0
1  2 0 0 1
2  3 1 0 0 1
2  4 3 0 0 1
0

0101000
+32 0 -34 0 *
Ve
1e-07
0.55 -1.34711147906209e-16 0
0 0

0101101
*
Ed
 1e-07 1 1 0
1  3 0 0 1.5707963267949
2  5 1 0 0 1.5707963267949
2  6 4 0 0 1.5707963267949
0

0101000
+30 0 -32 0 *
Ed
 1e-07 1 1 0
1  4 0 0 1
2  7 1 0 0 1
2  8 5 0 0 1
0

0101000
-35 0 +30 0 *
Wi

0101000
-33 0 +31 0 +29 0 -28 0 *
Fa
0  1e-07 1 0

0111000
+27 0 *
Ve
1.24999999959086e-07
1.53080849893419e-17 0.500000025 1
0 0

0101101
*
Ed
 1e-07 1 1 0
1  5 0 0.500000025 0.55
2  9 2 0 0.500000025 0.55
2  10 3 0 0.500000025 0.55
0

0101000
+25 0 -34 0 *
Ve
1e-07
0.5 -1.22464679914735e-16 1
0 0

0101101
*
Ed
 1e-07 1 1 0
1  6 0 0.5 0.55
2  11 2 0 0.5 0.55
2  12 5 0 0.5 0.55
0

0101000
+23 0 -35 0 *
Ed
 1e-07 1 1 0
1  7 0 0 1.5707963267949
2  13 2 0 0 1.5707963267949
2  14 6 0 0 1.5707963267949
0

0101000
+23 0 -25 0 *
Wi

0101000
-24 0 +33 0 +22 0 -21 0 *
Fa
0  1e-07 2 0

0111000
+20 0 *
Ve
2.00001e-07
3.06161699786838e-17 0.5 0
0 0

0101101
*
Ed
 1e-07 1 1 0
1  8 0 0.5 0.55
2  15 3 0 0.5 0.55
2  16 4 0 0.5 0.55
0

0101000
+18 0 -32 0 *
Ed
 1e-07 1 1 0
1  9 0 0 1
2  17 3 0 0 1
2  18 6 0 0 1
0

0101000
+18 0 -25 0 *
Wi

0101000
-24 0 +31 0 +17 0 -16 0 *
Fa
0  1e-07 3 0

0111000
+15 0 *
Ve
1e-07
0.5 -1.22464679914735e-16 0
0 0

0101101
*
Ed
 1e-07 1 1 0
1  10 0 -0.55 -0.5
2  19 4 0 -0.55 -0.5
2  20 5 0 -0.55 -0.5
0

0101000
+30 0 -13 0 *
Ed
 1e-07 1 1 0
1  11 0 0 1.5707963267949
2  21 4 0 0 1.5707963267949
2  22 6 0 0 1.5707963267949
0

0101000
+13 0 -18 0 *
Wi

0101000
-12 0 -11 0 -17 0 +29 0 *
Fa
0  1e-07 4 0

0111000
+10 0 *
Ed
 1e-07 1 1 0
1  12 0 0 1
2  23 5 0 0 1
2  24 6 0 0 1
0

0101000
-23 0 +13 0 *
Wi

0101000
+22 0 +8 0 +12 0 -28 0 *
Fa
0  1e-07 5 0

0111000
+7 0 *
Wi

0101000
-21 0 +16 0 +11 0 -8 0 *
Fa
0  1e-07 6 0

0111000
+5 0 *
Sh

0101000
+26 0 +19 0 -14 0 -9 0 -6 0 -4 0 *
So

0100000
+3 0 *
Co

1100000
+2 0 *

+1 0 
##EGADS HEADER FILE-REV 1 ##
0
  1  1  6  6  12  8  3
1 5 1
_body
5
1 5 1
_brch
5
2 8 3
_tParams
 3.268029285538e-02  1.307211714215e-03  1.500000000000e+01 
    2 0 3
1 5 2
_body
1 3 
1 5 2
_brch
1 3 
1 7 3
_faceID
1 3 1 
    2 1 3
1 5 2
_body
4 6 
1 5 2
_brch
4 6 
1 7 3
_faceID
4 6 1 
    2 2 3
1 5 2
_body
4 1 
1 5 2
_brch
4 1 
1 7 3
_faceID
4 1 1 
    2 3 3
1 5 2
_body
1 1 
1 5 2
_brch
1 1 
1 7 3
_faceID
1 1 1 
    2 4 3
1 5 2
_body
4 3 
1 5 2
_brch
4 3 
1 7 3
_faceID
4 3 1 
    2 5 3
1 5 2
_body
2 3 
1 5 2
_brch
2 3 
1 7 3
_faceID
2 3 1 
    4 0 2
1 5 2
_body
5 0 
1 7 5
_edgeID
1 3 4 6 1 
    4 1 2
1 5 2
_body
5 0 
1 7 5
_edgeID
1 3 4 1 1 
    4 2 2
1 5 2
_body
1 103 
1 7 5
_edgeID
1 1 1 3 1 
    4 3 2
1 5 2
_body
5 0 
1 7 5
_edgeID
1 3 4 3 1 
    4 4 2
1 5 2
_body
4 106 
1 7 5
_edgeID
4 1 4 6 1 
    4 5 2
1 5 2
_body
4 306 
1 7 5
_edgeID
4 3 4 6 1 
    4 6 2
1 5 2
_body
5 0 
1 7 5
_edgeID
2 3 4 6 1 
    4 7 2
1 5 2
_body
5 0 
1 7 5
_edgeID
1 1 4 1 1 
    4 8 2
1 5 2
_body
5 0 
1 7 5
_edgeID
2 3 4 1 1 
    4 9 2
1 5 2
_body
5 0 
1 7 5
_edgeID
1 1 4 3 1 
    4 10 2
1 5 2
_body
3 0 
1 7 5
_edgeID
1 1 2 3 1 
    4 11 2
1 5 2
_body
5 0 
1 7 5
_edgeID
2 3 4 3 1 
    0 0 0
