DBRep_DrawableShape

CASCADE Topology V1, (c) Matra-Datavision
Locations 0
Curve2ds 4
1 0 0 1 0 
1 0 2.0000000000000311 1 0 
1 6.2831853071795862 0 0 1 
1 0 0 0 1 
Curves 3
2 2.0000000000000311 0 0 1 0 0 -0 1 0 0 -0 1 0.99999999999999678
2 0 0 0 1 0 0 -0 1 0 0 -0 1 0.99999999999999678
1 2.0000000000000311 0.99999999999999678 0 -1 0 0 
Polygon3D 0
PolygonOnTriangulations 0
Surfaces 3
1 2.0000000000000311 0 0 1 0 0 0 -1 -0 0 -0 1 
2 2.0000000000000311 0 0 -1 -0 -0 0 1 0 -0 -0 1 0.99999999999999678
1 0 0 0 1 0 0 -0 1 0 0 -0 1 
Triangulations 0

TShapes 14
Ve
1e-07
2.00000000000003 0.999999999999997 0
0 0

0101101
*
Ed
 1e-07 1 1 0
1  1 0 0 6.28318530717959
2  1 2 0 0 6.28318530717959
0

0101100
+14 0 -14 0 *
Wi

0101000
-13 0 *
Fa
0  1e-07 1 0

0101000
+12 0 *
Ve
1e-07
0 0.999999999999997 0
0 0

0101101
*
Ed
 1e-07 1 1 0
1  2 0 0 6.28318530717959
2  2 2 0 0 6.28318530717959
0

0101100
+10 0 -10 0 *
Ed
 1e-07 1 1 0
1  3 0 0 2.00000000000003
3  3 4CN 2 0 0 2.00000000000003
0

0101000
+14 0 -10 0 *
Wi

0101000
+13 0 -9 0 -8 0 +8 0 *
Fa
0  1e-07 2 0

0101000
+7 0 *
Wi

0101000
+9 0 *
Fa
0  1e-07 3 0

0101000
+5 0 *
Sh

0101100
-11 0 -6 0 -4 0 *
So

0100100
+3 0 *
Co

1100000
+2 0 *

+1 0 
##EGADS HEADER FILE-REV 1 ##
0
  1  1  3  3  3  2  3
1 5 1
_body
7
1 5 1
_brch
16
2 8 3
_tParams
 9.142136489170e-02  3.656854595668e-03  1.500000000000e+01 
    2 0 4
1 5 2
_body
7 3 
1 5 2
_brch
16 3 
1 7 3
_faceID
7 3 1 
1 5 1
_hist
7
    2 1 4
1 5 2
_body
7 4 
1 5 2
_brch
16 4 
1 7 3
_faceID
7 4 1 
1 5 1
_hist
7
    2 2 4
1 5 2
_body
7 5 
1 5 2
_brch
16 5 
1 7 3
_faceID
7 5 1 
1 5 1
_hist
7
    4 0 3
1 5 2
_body
7 304 
1 7 5
_edgeID
7 3 7 4 1 
1 6 1
_nface
2
    4 1 3
1 5 2
_body
7 405 
1 7 5
_edgeID
7 4 7 5 1 
1 6 1
_nface
2
    4 2 3
1 5 2
_body
7 404 
1 7 5
_edgeID
7 4 7 4 1 
1 6 1
_nface
1
    5 0 2
1 7 1
_nodeID
1
1 6 1
_nedge
2
    5 1 2
1 7 1
_nodeID
2
1 6 1
_nedge
2
    0 0 0
