DBRep_DrawableShape

CASCADE Topology V1, (c) Matra-Datavision
Locations 0
Curve2ds 20
1 0 1 1 0 
1 1 0 0 1 
2 1 1 1 0 -0 1 0.80000000000000027
1 0 1.1313708498984762 1 0 
1 1 0 0 1 
1 1 0 0 -1 
2 1 1 1 0 -0 1 1
1 0 1.4142135623730951 1 0 
1 0 1 1 0 
1 0 -1 1 0 
7 0 0  1 2 2  0.20000000000000001 1  1.2000000000000002 0 
 0 2 1.4142135623730951 2
1 3.1415926535897931 0 0 1 
7 0 0  1 2 2  0 1  1.0000000000000002 0 
 0 2 1.4142135623730951 2
1 3.1415926535897931 0 0 1 
1 4.7123889803846897 0 0 1 
1 0.20000000000000001 -1 0.70710678118654757 0.70710678118654746 
1 0 0 1 0 
1 0 -1 0.70710678118654757 0.70710678118654746 
1 4.7123889803846897 0 0 1 
1 0 0 1 0 
Curves 9
1 0 1 1 1 0 -0 
2 1 1 1.0000000000000002 0 0 1 1 0 -0 -0 1 0 0.80000000000000016
1 1 0 1 0 1 0 
2 1 1 1.0000000000000002 0 -0 1 1 0 -0 0 1 0 1
1 1 1 0 0 0 1 
7 0 0  1 2 2  1 1 0.20000000000000001  0 1.0000000000000002 1.2000000000000002 
 0 2 1.4142135623730951 2
7 0 0  1 2 2  1 1 0  0 1.0000000000000002 1.0000000000000002 
 0 2 1.4142135623730951 2
1 1 1 0.20000000000000001 0 -0.70710678118654746 0.70710678118654757 
1 1 1 0 0 -0.70710678118654746 0.70710678118654757 
Polygon3D 0
PolygonOnTriangulations 0
Surfaces 5
1 0 0 1 0 0 1 1 0 -0 -0 1 0 
1 0 1 0 -0 1 0 0 0 1 1 0 -0 
10 3.1415926535897931 6.2831853071795862 0 1.4142135623730951
3 1 1 0.20000000000000001 0 0 1 1 0 -0 0 1 0 0
0.78539816339744828
1 1 0 0 1 0 -0 0 0 1 0 -1 0 
10 3.1415926535897931 6.2831853071795862 0 1.4142135623730951
3 1 1 0 0 0 1 1 0 -0 0 1 0 0
0.78539816339744828
Triangulations 0

TShapes 30
Ve
2.03000010000196e-05
0 1 1
0 0

0101101
*
Ve
1.0100001e-05
0.2 1 1
0 0

0101101
*
Ed
 1e-07 1 1 0
1  1 0 0 0.2
2  1 1 0 0 0.2
2  2 2 0 0 0.2
0

0101000
+30 0 -29 0 *
Ve
1.00000000124127e-07
1 0.2 1
0 0

0101101
*
Ed
 1e-07 1 1 0
1  2 0 3.14159265358979 4.71238898038469
2  3 1 0 3.14159265358979 4.71238898038469
2  4 3 0 3.14159265358979 4.71238898038469
0

0101000
+29 0 -27 0 *
Ve
5.00001000736038e-07
1 0 1
0 0

0101101
*
Ed
 1e-07 1 1 0
1  3 0 0 0.2
2  5 1 0 0 0.2
2  6 4 0 0 0.2
0

0101000
+25 0 -27 0 *
Ed
 1e-07 1 1 0
1  4 0 3.14159265358979 4.71238898038469
2  7 1 0 3.14159265358979 4.71238898038469
2  8 5 0 3.14159265358979 4.71238898038469
0

0101000
+30 0 -25 0 *
Wi

0101000
-28 0 -26 0 +24 0 +23 0 *
Fa
0  1e-07 1 0

0111000
+22 0 *
Ve
1.00000000000001e-05
1 1 0
0 0

0101101
*
Ve
1e-05
1 1 0.2
0 0

0101101
*
Ed
 1e-07 1 1 0
1  5 0 0 0.2
2  9 2 0 0 0.2
2  10 4 0 0 0.2
0

0101000
+20 0 -19 0 *
Ed
 1e-05 1 1 0
1  6 0 0 1.13137084989848
2  11 2 0 0 1.13137084989848
2  12 3 0 0 1.13137084989848
0

0101000
+19 0 -29 0 *
Ed
 1e-05 1 1 0
1  7 0 0 1.4142135623731
2  13 2 0 0 1.4142135623731
2  14 5 0 0 1.4142135623731
0

0101000
+20 0 -30 0 *
Wi

0101000
-18 0 -17 0 +28 0 +16 0 *
Fa
0  1e-07 2 0

0111000
+15 0 *
Ed
 1e-07 1 1 0
1  8 0 0 1.13137084989848
2  15 3 0 0 1.13137084989848
2  16 4 0 0 1.13137084989848
0

0101000
+19 0 -27 0 *
Ed
 1e-07 1 1 1
2  17 3 0 3.14159265358979 4.71238898038469
0

0101100
+19 0 -19 0 *
Wi

0101000
-17 0 -26 0 +13 0 +12 0 *
Fa
0  1e-07 3 0

0111000
+11 0 *
Ed
 1e-07 1 1 0
1  9 0 0 1.4142135623731
2  18 4 0 0 1.4142135623731
2  19 5 0 0 1.4142135623731
0

0101000
+20 0 -25 0 *
Wi

0101000
-24 0 +13 0 +18 0 -9 0 *
Fa
0  1e-07 4 0

0111000
+8 0 *
Ed
 1e-07 1 1 1
2  20 5 0 3.14159265358979 4.71238898038469
0

0101100
+20 0 -20 0 *
Wi

0101000
-16 0 -23 0 +9 0 +6 0 *
Fa
0  1e-07 5 0

0111000
+5 0 *
Sh

0101000
+21 0 +14 0 -10 0 +7 0 +4 0 *
So

0100000
+3 0 *
Co

1100000
+2 0 *

+1 0 
##EGADS HEADER FILE-REV 1 ##
0
  1  1  5  5  11  6  3
1 5 1
_body
5
1 5 1
_brch
5
2 8 3
_tParams
 4.571068677305e-02  1.828427470922e-03  1.500000000000e+01 
    2 0 3
1 5 2
_body
4 6 
1 5 2
_brch
4 6 
1 7 3
_faceID
4 6 1 
    2 1 3
1 5 2
_body
4 4 
1 5 2
_brch
4 4 
1 7 3
_faceID
4 4 1 
    2 2 3
1 5 2
_body
2 4 
1 5 2
_brch
2 4 
1 7 3
_faceID
2 4 1 
    2 3 3
1 5 2
_body
4 2 
1 5 2
_brch
4 2 
1 7 3
_faceID
4 2 1 
    2 4 3
1 5 2
_body
1 4 
1 5 2
_brch
1 4 
1 7 3
_faceID
1 4 1 
    4 0 2
1 5 2
_body
4 406 
1 7 5
_edgeID
4 4 4 6 1 
    4 1 2
1 5 2
_body
5 0 
1 7 5
_edgeID
2 4 4 6 1 
    4 2 2
1 5 2
_body
4 206 
1 7 5
_edgeID
4 2 4 6 1 
    4 3 2
1 5 2
_body
5 0 
1 7 5
_edgeID
1 4 4 6 1 
    4 4 2
1 5 2
_body
4 204 
1 7 5
_edgeID
4 2 4 4 1 
    4 5 2
1 5 2
_body
5 0 
1 7 5
_edgeID
2 4 4 4 1 
    4 6 2
1 5 2
_body
5 0 
1 7 5
_edgeID
1 4 4 4 1 
    4 7 2
1 5 2
_body
5 0 
1 7 5
_edgeID
2 4 4 2 1 
    4 8 2
1 5 2
_body
2 -3 
1 7 5
_edgeID
0 0 2 4 1 
    4 9 2
1 5 2
_body
5 0 
1 7 5
_edgeID
1 4 4 2 1 
    4 10 2
1 5 2
_body
1 -3 
1 7 5
_edgeID
0 0 1 4 1 
    0 0 0
